<?xml version="1.0" encoding="UTF-8" standalone="no"?>
<!-- Created with Inkscape (http://www.inkscape.org/) -->

<svg
   xmlns:dc="http://purl.org/dc/elements/1.1/"
   xmlns:cc="http://creativecommons.org/ns#"
   xmlns:rdf="http://www.w3.org/1999/02/22-rdf-syntax-ns#"
   xmlns:svg="http://www.w3.org/2000/svg"
   xmlns="http://www.w3.org/2000/svg"
   xmlns:xlink="http://www.w3.org/1999/xlink"
   xmlns:sodipodi="http://sodipodi.sourceforge.net/DTD/sodipodi-0.dtd"
   xmlns:inkscape="http://www.inkscape.org/namespaces/inkscape"
   width="74mm"
   height="75.950058mm"
   viewBox="0 0 74 75.950058"
   version="1.1"
   id="svg832"
   sodipodi:docname="cookbook_app_icon1.svg"
   inkscape:version="0.92.2 (5c3e80d, 2017-08-06)">
  <sodipodi:namedview
     id="base"
     pagecolor="#ffffff"
     bordercolor="#666666"
     borderopacity="1.0"
     inkscape:pageopacity="0.0"
     inkscape:pageshadow="2"
     inkscape:zoom="5.7526605"
     inkscape:cx="108.45759"
     inkscape:cy="140.61075"
     inkscape:document-units="mm"
     inkscape:current-layer="layer3"
     showgrid="false"
     inkscape:window-width="1920"
     inkscape:window-height="1017"
     inkscape:window-x="-8"
     inkscape:window-y="-8"
     inkscape:window-maximized="1"
     showguides="false"
     fit-margin-top="0"
     fit-margin-left="0"
     fit-margin-right="0"
     fit-margin-bottom="0" />
  <defs
     id="defs826">
    <linearGradient
       inkscape:collect="always"
       id="linearGradient3822">
      <stop
         style="stop-color:#000000;stop-opacity:1;"
         offset="0"
         id="stop3818" />
      <stop
         style="stop-color:#000000;stop-opacity:0;"
         offset="1"
         id="stop3820" />
    </linearGradient>
    <linearGradient
       inkscape:collect="always"
       xlink:href="#linearGradient3822"
       id="linearGradient3824"
       x1="160.87096"
       y1="168.66257"
       x2="329.6441"
       y2="168.66257"
       gradientUnits="userSpaceOnUse" />
    <filter
       inkscape:collect="always"
       style="color-interpolation-filters:sRGB"
       id="filter4223"
       x="-0.11999884"
       width="1.2399977"
       y="-0.12000116"
       height="1.2400023">
      <feGaussianBlur
         inkscape:collect="always"
         stdDeviation="1.143389"
         id="feGaussianBlur4225" />
    </filter>
    <filter
       inkscape:collect="always"
       style="color-interpolation-filters:sRGB"
       id="filter11717"
       x="-0.11458748"
       width="1.229175"
       y="-0.12594919"
       height="1.2518984">
      <feGaussianBlur
         inkscape:collect="always"
         stdDeviation="2.1868457"
         id="feGaussianBlur11719" />
    </filter>
    <filter
       inkscape:collect="always"
       style="color-interpolation-filters:sRGB"
       id="filter11737"
       x="-0.069981843"
       width="1.1399637"
       y="-0.42065477"
       height="1.8413095">
      <feGaussianBlur
         inkscape:collect="always"
         stdDeviation="1.0687103"
         id="feGaussianBlur11739" />
    </filter>
    <clipPath
       id="clipPath19800"
       clipPathUnits="userSpaceOnUse">
      <path
         inkscape:connector-curvature="0"
         id="path19802"
         d="m -4.8000577,-49.964186 c 1.9179179,-0.724806 9.3114803,3.392029 11.0348075,8.752754 1.723326,5.360722 17.7048282,9.584592 23.2678122,8.712341 5.562986,-0.872249 16.148027,-5.047218 9.816187,-19.166544 L 62.97722,-62.775267 46.97096,-99.425721 20.368572,-87.888919 c -3.360864,-2.87336 -10.4345556,-4.060474 -15.007199,-1.246491 -4.8451556,2.981691 -7.2913651,3.357914 -10.8778325,15.533566 -1.607498,5.457269 -2.7318597,12.103159 -5.5096925,13.98565"
         style="display:inline;opacity:0.98000004;fill:#000000;fill-opacity:1;stroke:#000000;stroke-width:0.1;stroke-linecap:butt;stroke-linejoin:miter;stroke-miterlimit:4;stroke-dasharray:none;stroke-opacity:1;paint-order:fill markers stroke"
         sodipodi:nodetypes="cssccccssc" />
    </clipPath>
    <clipPath
       id="clipPath19804"
       clipPathUnits="userSpaceOnUse">
      <path
         inkscape:connector-curvature="0"
         id="path19806"
         d="m 168.22564,-126.0134 c 1.91792,-0.7248 9.31148,3.39203 11.0348,8.75276 1.72333,5.36072 17.70483,9.58459 23.26782,8.71234 5.56298,-0.87225 16.14802,-5.04722 9.81618,-19.16654 l 23.65847,-11.10964 -16.00625,-36.65045 -26.60239,11.5368 c -3.36087,-2.87336 -10.43456,-4.06047 -15.0072,-1.24649 -4.84516,2.98169 -7.29137,3.35791 -10.87783,15.53357 -1.6075,5.45727 -2.73186,12.10316 -5.5097,13.98565"
         style="display:inline;opacity:0.98000004;fill:#000000;fill-opacity:1;stroke:#000000;stroke-width:0.1;stroke-linecap:butt;stroke-linejoin:miter;stroke-miterlimit:4;stroke-dasharray:none;stroke-opacity:1;paint-order:fill markers stroke"
         sodipodi:nodetypes="cssccccssc" />
    </clipPath>
    <clipPath
       id="clipPath19808"
       clipPathUnits="userSpaceOnUse">
      <path
         inkscape:connector-curvature="0"
         id="path19810"
         d="m 47.672638,15.70945 c -0.10818,2.04744 -6.852057,7.15959 -12.45312,6.58029 -5.60106,-0.5793 -15.898513,12.35182 -17.3384,17.79555 -1.43989,5.443731 -1.876964,16.813919 13.596779,16.698389 l 0.651026,26.128832 39.9933,0.0935 0.142473,-28.99579 c 3.982836,-1.920648 7.915905,-7.918778 7.179686,-13.23716 -0.7801,-5.635339 -0.140227,-8.026159 -9.84368,-16.208519 -4.3492,-3.66743 -9.980962,-7.37082 -10.586609,-10.6713"
         style="display:inline;opacity:0.98000004;fill:#000000;fill-opacity:1;stroke:#000000;stroke-width:0.1;stroke-linecap:butt;stroke-linejoin:miter;stroke-miterlimit:4;stroke-dasharray:none;stroke-opacity:1;paint-order:fill markers stroke"
         sodipodi:nodetypes="cssccccssc" />
    </clipPath>
    <clipPath
       clipPathUnits="userSpaceOnUse"
       id="clipPath5200">
      <rect
         style="display:inline;opacity:1;fill:#006600;fill-opacity:1;fill-rule:nonzero;stroke:none;stroke-width:128.12220764;stroke-linecap:butt;stroke-linejoin:miter;stroke-miterlimit:4;stroke-dasharray:none;stroke-opacity:1;paint-order:fill markers stroke"
         id="rect5202"
         width="408.18896"
         height="408.18896"
         x="0"
         y="0" />
    </clipPath>
    <filter
       inkscape:collect="always"
       style="color-interpolation-filters:sRGB"
       id="filter898"
       x="-0.24661499"
       width="1.49323"
       y="-0.079291053"
       height="1.1585821">
      <feGaussianBlur
         inkscape:collect="always"
         stdDeviation="0.411025"
         id="feGaussianBlur900" />
    </filter>
    <filter
       inkscape:collect="always"
       style="color-interpolation-filters:sRGB"
       id="filter1227"
       x="-0.070965707"
       width="1.1419314"
       y="-0.38829631"
       height="1.7765926">
      <feGaussianBlur
         inkscape:collect="always"
         stdDeviation="1.083735"
         id="feGaussianBlur1229" />
    </filter>
    <clipPath
       clipPathUnits="userSpaceOnUse"
       id="clipPath873">
      <path
         style="opacity:0.2;fill:#fffff9;fill-opacity:1;fill-rule:nonzero;stroke:none;stroke-width:7.99970388;stroke-linecap:square;stroke-linejoin:miter;stroke-miterlimit:4;stroke-dasharray:none;stroke-opacity:1;paint-order:fill markers stroke"
         id="path875"
         sodipodi:type="arc"
         sodipodi:cx="54"
         sodipodi:cy="243"
         sodipodi:rx="37"
         sodipodi:ry="37"
         sodipodi:start="0"
         sodipodi:end="6.282941"
         sodipodi:open="true"
         d="M 91,243 A 37,37 0 0 1 54.00226,280 37,37 0 0 1 17,243.00452 37,37 0 0 1 53.99322,206 37,37 0 0 1 90.999999,242.99096" />
    </clipPath>
    <clipPath
       clipPathUnits="userSpaceOnUse"
       id="clipPath880">
      <rect
         clip-path="url(#clipPath873)"
         transform="matrix(3.7795276,0,0,3.7795276,0,-714.33072)"
         style="display:inline;opacity:1;fill:#8bc34a;fill-opacity:1;fill-rule:nonzero;stroke:none;stroke-width:33.89900208;stroke-linecap:butt;stroke-linejoin:miter;stroke-miterlimit:4;stroke-dasharray:none;stroke-opacity:1;paint-order:fill markers stroke"
         id="rect882"
         width="108"
         height="108"
         x="0"
         y="189" />
    </clipPath>
  </defs>
  <metadata
     id="metadata829">
    <rdf:RDF>
      <cc:Work
         rdf:about="">
        <dc:format>image/svg+xml</dc:format>
        <dc:type
           rdf:resource="http://purl.org/dc/dcmitype/StillImage" />
        <dc:title></dc:title>
      </cc:Work>
    </rdf:RDF>
  </metadata>
  <g
     style="display:inline"
     inkscape:groupmode="layer"
     id="layer3"
     inkscape:label="background"
     transform="translate(-17,-15.049942)">
    <rect
       y="189"
       x="0"
       height="108"
       width="108"
       id="rect903"
       style="display:inline;opacity:1;fill:#8bc34a;fill-opacity:1;fill-rule:nonzero;stroke:none;stroke-width:33.89900208;stroke-linecap:butt;stroke-linejoin:miter;stroke-miterlimit:4;stroke-dasharray:none;stroke-opacity:1;paint-order:fill markers stroke"
       transform="translate(0,-189)"
       clip-path="url(#clipPath873)" />
  </g>
  <g
     inkscape:label="backgroundshadows"
     id="layer4"
     inkscape:groupmode="layer"
     transform="translate(-17,-15.049942)">
    <path
       style="color:#000000;font-style:normal;font-variant:normal;font-weight:normal;font-stretch:normal;font-size:medium;line-height:normal;font-family:sans-serif;font-variant-ligatures:normal;font-variant-position:normal;font-variant-caps:normal;font-variant-numeric:normal;font-variant-alternates:normal;font-feature-settings:normal;text-indent:0;text-align:start;text-decoration:none;text-decoration-line:none;text-decoration-style:solid;text-decoration-color:#000000;letter-spacing:normal;word-spacing:normal;text-transform:none;writing-mode:lr-tb;direction:ltr;text-orientation:mixed;dominant-baseline:auto;baseline-shift:baseline;text-anchor:start;white-space:normal;shape-padding:0;clip-rule:nonzero;display:inline;overflow:visible;visibility:visible;opacity:0.1;isolation:auto;mix-blend-mode:normal;color-interpolation:sRGB;color-interpolation-filters:linearRGB;solid-color:#000000;solid-opacity:1;vector-effect:none;fill:#000000;fill-opacity:1;fill-rule:nonzero;stroke:none;stroke-width:18.89763832;stroke-linecap:butt;stroke-linejoin:miter;stroke-miterlimit:4;stroke-dasharray:none;stroke-dashoffset:0;stroke-opacity:1;paint-order:fill markers stroke;color-rendering:auto;image-rendering:auto;shape-rendering:auto;text-rendering:auto;enable-background:accumulate"
       d="m 162.91797,106.04688 c -23.85998,-0.2805 -45.31844,15.75083 -51.53125,39.19335 -4.98815,18.82155 0.89805,38.35489 14.27344,51.29297 0.37927,0.39065 0.76399,0.77678 1.15625,1.15625 0.38261,0.39406 0.77019,0.78333 1.16601,1.16602 0.37874,0.38981 0.76262,0.77561 1.1543,1.1543 0.37767,0.38867 0.75986,0.77279 1.15039,1.15039 0.37655,0.38747 0.7591,0.77 1.14844,1.14648 0.37592,0.38681 0.75587,0.77064 1.14453,1.14648 0.3756,0.38647 0.75621,0.76902 1.14453,1.14454 0.37069,0.38136 0.74583,0.7582 1.12891,1.1289 0.1833,0.18869 0.36248,0.38031 0.54882,0.56641 l 0.0117,95.72265 h 1.16016 v 1.15821 h 1.1543 v 1.15429 h 1.15429 v 1.1543 h 1.15235 v 1.15235 h 1.14843 v 1.14843 h 1.14649 v 1.14649 h 1.14453 v 1.14453 h 1.14258 v 1.14258 h 1.13867 v 1.13867 h 1.13672 v 1.13867 h 1.13672 v 1.13477 h 1.13281 v 1.13281 h 1.12891 v 1.13086 h 1.1289 v 1.12695 h 1.125 v 1.12695 h 1.125 v 1.12305 h 1.1211 v 1.12109 h 1.11914 v 1.11915 h 1.11523 v 1.11523 h 1.11523 v 1.11523 h 1.11133 v 1.11133 h 1.10938 v 1.10938 h 1.10742 v 1.10742 h 1.10547 v 1.10547 h 1.10351 v 1.10351 h 1.09961 v 1.09961 h 1.09766 v 1.09766 h 1.0957 v 1.0957 h 1.09375 v 1.09375 h 1.0918 v 1.08985 h 1.08789 v 1.08984 h 1.08594 v 1.08594 h 1.08398 v 1.08398 h 1.08203 v 1.08203 h 1.08008 v 1.08008 h 1.07617 v 1.07617 h 1.07618 v 1.07617 h 1.07226 v 1.07227 h 1.07031 v 1.07031 h 1.06641 v 1.06641 h 1.06641 v 1.06641 h 1.0625 v 1.0625 h 1.0625 v 1.06054 h 1.05664 v 1.0586 h 1.05664 v 1.05664 h 1.05469 v 1.05468 h 1.05078 v 1.05079 h 1.05078 v 1.05078 h 1.04687 v 1.04687 h 1.04492 v 1.04297 h 1.04102 v 1.04297 h 1.04102 v 1.04102 h 1.03711 v 1.0371 h 1.03515 v 1.03516 h 1.0332 v 1.0332 h 1.03125 v 1.03125 h 1.02735 v 1.02735 h 1.02734 v 1.02734 h 1.02344 v 1.02344 h 1.02148 v 1.02148 h 1.01953 v 1.01953 h 1.01563 v 1.01563 h 1.01563 v 1.01562 h 1.01171 v 1.01172 h 1.00977 v 1.00977 h 1.00781 v 1.00781 h 1.00586 v 1.00586 h 1.00195 v 1.00195 h 1 v 1 h 1 v 1 h 0.9961 v 0.99414 h 0.99219 v 0.99415 h 0.99218 v 0.99218 h 0.98828 v 0.98828 h 0.98633 v 0.98633 h 0.98438 v 0.98438 h 0.98242 v 0.98242 h 0.98047 v 0.98047 h 0.97656 v 0.97656 h 0.97656 v 0.97461 h 0.97266 v 0.97461 h 0.9707 v 0.96875 h 0.9668 v 0.96875 h 0.9668 v 0.9668 h 0.96289 v 0.96289 h 0.96093 v 0.96093 h 0.95899 v 0.95899 h 0.95703 v 0.95703 h 0.95508 v 0.95312 h 0.95117 v 0.95313 h 0.94922 v 0.94922 h 0.94726 v 0.94726 h 0.94532 v 0.94532 h 0.94336 v 0.9414 h 0.93945 v 0.94141 h 0.9375 v 0.9375 h 0.93555 v 0.93555 h 0.93359 v 0.93359 h 0.93164 v 0.93164 h 0.92773 v 0.92773 h 0.92774 v 0.92579 h 0.92383 v 0.92578 h 0.92187 v 0.92187 h 0.91992 v 0.91797 h 0.91602 v 0.91797 h 0.91406 v 0.91406 h 0.91406 v 0.91211 h 0.91016 v 0.91016 h 0.9082 v 0.9082 h 0.9043 v 0.90625 h 0.9043 v 0.90234 h 0.90039 v 0.90235 h 0.89844 v 0.89844 h 0.89648 v 0.89648 h 0.89258 v 0.89258 h 0.89258 v 0.89258 h 0.88867 v 0.88867 h 0.88672 v 0.88672 h 0.88476 v 0.88476 h 0.88282 v 0.88281 h 0.88086 v 0.87891 h 0.87695 v 0.87891 h 0.875 v 0.875 h 0.87305 v 0.87304 h 0.87109 v 0.8711 h 0.86914 v 0.86914 h 0.86523 v 0.86523 h 0.86524 v 0.86328 h 0.86133 v 0.86133 h 0.85742 v 0.85938 h 0.85742 v 0.85742 h 0.85547 v 0.85352 h 0.85156 v 0.85351 h 0.84961 v 0.84961 h 0.84766 v 0.84766 h 0.8457 v 0.8457 h 0.8418 v 0.8418 h 0.84179 v 0.84179 h 0.83789 v 0.83789 h 0.83594 v 0.83594 h 0.83399 v 0.83399 h 0.83007 v 0.83007 h 0.83008 v 0.83008 h 0.82617 v 0.82617 h 0.82422 v 0.82422 h 0.82227 v 0.82227 h 0.82031 v 0.82031 h 0.81836 v 0.81641 h 0.81445 v 0.81445 h 0.8125 v 0.81445 h 0.81055 v 0.81055 h 0.80859 v 0.80664 h 0.80469 v 0.80664 h 0.80469 v 0.80274 h 0.80078 v 0.80078 h 0.79883 v 0.80078 h 0.79687 v 0.79492 h 0.79297 v 0.79492 h 0.79297 v 0.79102 h 0.78906 v 0.79101 h 0.78711 v 0.78711 h 0.78516 v 0.78516 h 0.7832 v 0.78125 h 0.7793 v 0.78125 h 0.7793 v 0.77734 h 0.77539 v 0.77539 h 0.77343 v 0.77344 h 0.77149 v 0.77148 h 0.76758 v 0.76954 h 0.76757 v 0.76562 h 0.76368 v 0.76367 h 0.76172 v 0.76172 h 0.75976 v 0.75977 h 0.75586 v 0.75781 h 0.75586 v 0.75391 h 0.75195 v 0.7539 h 0.75 v 0.75 h 0.74805 v 0.74805 h 0.74609 v 0.74414 h 0.74219 v 0.74414 h 0.74219 v 0.74023 h 0.73828 v 0.73829 h 0.73633 v 0.73632 H 309.5 v 0.73438 h 0.73242 v 0.73242 h 0.72852 v 0.72852 h 0.72851 v 0.72656 h 0.72461 v 0.72461 h 0.72071 v 0.72266 h 0.7207 v 0.7207 h 0.71875 v 0.7168 h 0.71484 v 0.71484 h 0.71289 v 0.71484 h 0.71094 v 0.70899 h 0.70899 v 0.70898 h 0.70507 v 0.70703 h 0.70313 v 0.70313 h 0.70312 v 0.70117 h 0.69922 v 0.69922 h 0.69531 v 0.69726 h 0.69532 v 0.69336 h 0.6914 v 0.69336 h 0.69141 v 0.68946 h 0.6875 v 0.6875 h 0.68359 v 0.68554 h 0.6836 v 0.6836 h 0.68164 v 0.67968 h 0.67773 v 0.67774 h 0.67578 v 0.67578 h 0.67383 v 0.67383 h 0.67188 v 0.67187 h 0.66797 v 0.66992 h 0.66601 v 0.66602 h 0.66602 v 0.66406 h 0.66211 v 0.66211 h 0.6582 v 0.66016 h 0.6582 v 0.65625 h 0.6543 v 0.65625 h 0.6543 v 0.65234 h 0.65039 v 0.65039 h 0.64648 v 0.64844 h 0.64649 v 0.64648 h 0.64453 v 0.64258 h 0.64062 v 0.64063 h 0.63867 v 0.63867 h 0.63672 v 0.63672 h 0.63477 v 0.63476 h 0.63086 v 0.63282 h 0.63086 v 0.6289 h 0.62695 v 0.62696 h 0.625 v 0.625 h 0.62305 v 0.62304 h 0.61914 v 0.61914 h 0.61914 v 0.61914 h 0.61523 v 0.61524 h 0.61328 v 0.61328 h 0.61133 v 0.61133 h 0.60742 v 0.60937 h 0.60743 v 0.60547 h 0.60351 v 0.60352 h 0.60156 v 0.60351 h 0.59961 v 0.59766 h 0.59766 v 0.59766 h 0.59375 v 0.5957 h 0.59375 v 0.5918 h 0.58984 v 0.58984 h 0.58789 v 0.58789 h 0.58594 v 0.58594 h 0.58203 v 0.58398 h 0.58203 v 0.58008 h 0.57813 v 0.57812 h 0.57617 v 0.57618 h 0.57422 v 0.57421 h 0.57031 v 0.57227 h 0.57031 v 0.56836 H 356.25 v 0.56836 h 0.56445 v 0.56445 h 0.5625 v 0.5625 h 0.56055 v 0.5586 h 0.55664 v 0.55859 h 0.55664 v 0.55469 h 0.55274 v 0.55273 h 0.55078 v 0.55078 h 0.54882 v 0.54883 h 0.54493 v 0.54688 h 0.54492 v 0.54296 h 0.54101 v 0.54102 h 0.53907 v 0.53906 h 0.53711 v 0.53711 h 0.53515 v 0.53516 h 0.53125 v 0.53125 h 0.5293 v 0.53125 h 0.52734 v 0.52734 h 0.52539 v 0.52539 h 0.52344 v 0.52149 h 0.52149 v 0.52148 h 0.51757 v 0.51758 h 0.51563 v 0.51563 h 0.51367 v 0.51367 h 0.51172 v 0.51172 h 0.50977 v 0.50976 h 0.50585 v 0.50586 h 0.50391 v 0.50586 h 0.50195 v 0.50195 h 0.5 v 0.49805 h 0.49805 v 0.49805 h 0.49414 v 0.49609 h 0.49414 v 0.49219 h 0.49024 v 0.49023 h 0.48828 v 0.48828 h 0.48437 v 0.48633 h 0.48438 v 0.48242 h 0.48047 v 0.48243 h 0.47851 v 0.47851 h 0.47656 v 0.47656 h 0.47461 v 0.47461 H 377.5 v 0.47071 h 0.46875 v 0.4707 h 0.46875 v 0.4668 h 0.46484 V 545.5 h 0.46289 v 0.46289 h 0.45899 v 0.45899 h 0.45898 v 0.45898 h 0.45508 v 0.45508 h 0.45313 v 0.45312 h 0.45117 v 0.45117 h 0.44922 v 0.44922 h 0.44531 v 0.44727 h 0.44531 v 0.44336 h 0.44141 v 0.4414 h 0.43945 v 0.43946 h 0.4375 v 0.4375 h 0.4336 v 0.43359 h 0.43359 v 0.43359 h 0.42969 v 0.42969 h 0.42773 v 0.42774 h 0.42578 v 0.42578 h 0.42383 v 0.42383 h 0.41992 v 0.41992 h 0.41797 v 0.41992 h 0.41602 v 0.41602 h 0.41406 v 0.41406 h 0.41211 v 0.41015 h 0.41015 v 0.41016 h 0.40625 v 0.40625 h 0.4043 v 0.4043 h 0.40234 v 0.40234 h 0.4004 v 0.40039 h 0.39843 v 0.39844 h 0.39453 v 0.39453 h 0.39258 v 0.39258 h 0.39063 v 0.39258 h 0.38867 v 0.38672 h 0.38672 v 0.38671 h 0.38281 v 0.38477 h 0.38281 v 0.38086 h 0.37891 v 0.37891 h 0.37695 v 0.37695 h 0.375 v 0.375 h 0.3711 v 0.37109 h 0.36914 v 0.3711 h 0.36914 v 0.36718 h 0.36523 v 0.36524 h 0.36133 v 0.36328 h 0.36133 v 0.35937 h 0.35937 v 0.35938 h 0.35547 v 0.35547 h 0.35352 v 0.35351 h 0.35156 v 0.35157 h 0.34766 v 0.34961 h 0.34765 v 0.3457 h 0.34375 v 0.34375 h 0.3418 v 0.3418 h 0.33984 v 0.33984 h 0.33789 V 567.5 h 0.33594 v 0.33594 h 0.33203 v 0.33203 h 0.33008 v 0.33008 h 0.32813 v 0.32812 h 0.32617 v 0.32617 h 0.32422 v 0.32422 h 0.32031 v 0.32032 h 0.31836 v 0.31835 h 0.3164 v 0.31641 h 0.31446 v 0.31445 h 0.3125 v 0.3125 h 0.30859 v 0.31055 h 0.30859 v 0.30664 h 0.30469 v 0.30469 h 0.30274 v 0.30273 h 0.30078 v 0.30078 h 0.29687 v 0.29688 h 0.29492 v 0.29687 h 0.29493 v 0.29297 h 0.29101 v 0.29102 h 0.28711 v 0.28906 h 0.28711 v 0.28516 h 0.28516 v 0.28515 h 0.28125 v 0.28125 h 0.27929 v 0.2793 h 0.27735 v 0.27734 h 0.27344 v 0.2754 h 0.27343 v 0.27148 h 0.26953 v 0.26953 h 0.26758 v 0.26953 h 0.26563 v 0.26563 h 0.26367 v 0.26172 h 0.26172 v 0.26171 h 0.25781 v 0.25782 H 411.25 v 0.25586 h 0.25391 v 0.2539 h 0.25195 v 0.25196 h 0.25 v 0.25 h 0.24609 v 0.24609 h 0.24414 v 0.24609 h 0.24219 v 0.24219 h 0.24024 v 0.24023 h 0.23828 v 0.23633 h 0.23632 v 0.23633 h 0.23243 v 0.23242 h 0.23047 v 0.23047 h 0.22851 v 0.22852 h 0.22656 v 0.22656 h 0.22266 v 0.22266 h 0.22266 v 0.22265 h 0.21875 v 0.21875 h 0.21679 v 0.2168 h 0.21485 v 0.21484 h 0.21093 v 0.21094 h 0.21094 v 0.21094 h 0.20703 v 0.20703 h 0.20508 v 0.20508 h 0.20313 v 0.20312 h 0.20117 v 0.20117 h 0.19726 V 583.5 h 0.19727 v 0.19727 h 0.19336 v 0.19335 h 0.19141 v 0.19141 h 0.1875 v 0.18945 h 0.1875 v 0.18555 h 0.18359 v 0.18555 h 0.18359 v 0.18164 h 0.17969 v 0.17969 h 0.17578 v 0.17773 h 0.17578 v 0.17383 h 0.17383 v 0.17383 h 0.16992 v 0.16992 h 0.16797 v 0.16797 h 0.16602 v 0.16601 h 0.16211 v 0.16407 h 0.16211 v 0.16015 h 0.1582 v 0.1582 h 0.15625 v 0.15821 h 0.1543 v 0.15429 h 0.15234 v 0.1504 h 0.15039 v 0.15039 h 0.14648 v 0.14648 h 0.14454 v 0.14453 h 0.14257 v 0.14258 h 0.14063 v 0.14062 h 0.13867 v 0.13868 h 0.13477 v 0.13476 h 0.13476 v 0.13477 h 0.13086 v 0.13086 h 0.12891 v 0.1289 h 0.125 v 0.125 h 0.125 v 0.125 h 0.12109 v 0.1211 h 0.11914 v 0.11914 h 0.11719 v 0.11719 h 0.11523 v 0.11523 h 0.11329 v 0.11328 h 0.10937 v 0.10938 h 0.10742 v 0.10742 h 0.10547 v 0.10547 h 0.10352 v 0.10351 h 0.10156 v 0.10157 h 0.0977 v 0.0977 h 0.0957 v 0.0977 h 0.0937 v 0.0937 h 0.0918 v 0.0918 h 0.0899 v 0.0879 h 0.0879 v 0.0879 h 0.084 v 0.084 h 0.082 v 0.082 h 0.0801 v 0.0801 h 0.0781 v 0.0781 h 0.0742 v 0.0762 h 0.0742 v 0.0723 h 0.0703 v 0.0703 h 0.0684 v 0.0684 h 0.0664 v 0.0664 h 0.0645 v 0.0644 h 0.0605 v 0.0606 h 0.0586 v 0.0586 h 0.0566 v 0.0566 h 0.0547 v 0.0547 h 0.0527 v 0.0527 h 0.0488 v 0.0508 h 0.0488 v 0.0469 h 0.0449 v 0.0449 h 0.043 v 0.043 h 0.041 v 0.041 h 0.0371 v 0.0371 h 0.0371 v 0.0371 h 0.0332 v 0.0332 h 0.0312 v 0.0312 h 0.0293 v 0.0293 h 0.0254 v 0.0273 h 0.0254 v 0.0234 h 0.0215 v 0.0215 h 0.0195 v 0.0195 h 0.0176 v 0.0176 h 0.0156 v 0.0156 h 0.0117 v 0.0137 h 0.0117 v 0.01 h 0.008 v 0.008 h 0.006 v 0.006 h 0.004 v 0.004 h 138.52343 l 0.34766,-96.7207 c 20.24013,-11.23071 31.33033,-35.08539 25.99609,-58.17187 -0.55155,-2.3871 -1.26272,-4.70212 -2.11718,-6.9375 -5.2e-4,-10e-4 -0.001,-0.003 -0.002,-0.004 -1.13965,-2.98074 -2.53588,-5.81861 -4.16015,-8.49024 -0.40549,-0.6671 -0.82452,-1.32266 -1.25781,-1.96875 -5.1e-4,-7.5e-4 -10e-4,-10e-4 -0.002,-0.002 -0.43332,-0.64605 -0.87967,-1.28191 -1.33984,-1.90625 -5.4e-4,-7.4e-4 -0.001,-10e-4 -0.002,-0.002 -0.46022,-0.62428 -0.93185,-1.23603 -1.41796,-1.83789 -10e-4,-0.001 -0.003,-0.002 -0.004,-0.004 -0.48553,-0.60114 -0.98374,-1.19145 -1.49414,-1.76953 -10e-4,-0.001 -0.003,-0.003 -0.004,-0.004 -0.002,-0.002 -0.004,-0.004 -0.006,-0.006 -0.50862,-0.57594 -1.03014,-1.141 -1.5625,-1.69335 -10e-4,-0.001 -0.003,-0.003 -0.004,-0.004 -0.002,-0.002 -0.004,-0.004 -0.006,-0.006 -0.003,-0.003 -0.005,-0.005 -0.008,-0.008 -0.003,-0.003 -0.007,-0.006 -0.01,-0.01 -0.004,-0.004 -0.01,-0.01 -0.0137,-0.0137 -0.004,-0.004 -0.01,-0.01 -0.0137,-0.0137 -0.005,-0.005 -0.0125,-0.0123 -0.0176,-0.0176 -0.006,-0.006 -0.0138,-0.0136 -0.0195,-0.0195 -0.007,-0.007 -0.0164,-0.0161 -0.0234,-0.0234 -0.007,-0.007 -0.0164,-0.0161 -0.0234,-0.0234 -0.008,-0.009 -0.019,-0.0187 -0.0273,-0.0273 -0.009,-0.009 -0.0203,-0.02 -0.0293,-0.0293 -0.01,-0.01 -0.0216,-0.0213 -0.0312,-0.0312 -0.0102,-0.0106 -0.023,-0.0226 -0.0332,-0.0332 -0.004,-0.004 -0.008,-0.008 -0.0117,-0.0117 0,0 -0.002,-0.002 -0.002,-0.002 0,0 -0.002,0 -0.002,0 -0.002,-0.002 -0.006,-0.006 -0.008,-0.008 -0.003,-0.003 -0.005,-0.005 -0.008,-0.008 0,0 -0.002,-0.002 -0.002,-0.002 0,0 -0.002,-0.002 -0.002,-0.002 0,0 0,-0.002 0,-0.002 -0.0128,-0.0133 -0.0263,-0.0258 -0.0391,-0.0391 -0.0134,-0.0139 -0.0276,-0.0271 -0.041,-0.041 -0.005,-0.005 -0.0105,-0.0103 -0.0156,-0.0156 -0.0236,-0.0245 -0.0486,-0.0478 -0.0723,-0.0723 -0.0154,-0.0159 -0.0315,-0.031 -0.0469,-0.0469 -0.0166,-0.0172 -0.0341,-0.0336 -0.0508,-0.0508 -0.0166,-0.0173 -0.0341,-0.0335 -0.0508,-0.0508 -0.0128,-0.0133 -0.0263,-0.0258 -0.0391,-0.0391 -0.004,-0.004 -0.008,-0.008 -0.0117,-0.0117 -10e-4,-10e-4 -0.003,-0.003 -0.004,-0.004 -0.0185,-0.0192 -0.0381,-0.0374 -0.0566,-0.0566 -0.0109,-0.0113 -0.0223,-0.0219 -0.0332,-0.0332 -0.0287,-0.0299 -0.0591,-0.0581 -0.0879,-0.0879 -0.0211,-0.0219 -0.0433,-0.0426 -0.0644,-0.0645 -0.003,-0.003 -0.007,-0.006 -0.01,-0.01 -0.0183,-0.0188 -0.0364,-0.0378 -0.0547,-0.0566 -0.0224,-0.0232 -0.0459,-0.0452 -0.0684,-0.0684 -0.0233,-0.0242 -0.0489,-0.0462 -0.0723,-0.0703 -0.0237,-0.0245 -0.0485,-0.0478 -0.0723,-0.0723 -0.007,-0.007 -0.0145,-0.0142 -0.0215,-0.0215 -0.0161,-0.0165 -0.0327,-0.0324 -0.0488,-0.0488 -0.002,-0.002 -0.004,-0.004 -0.006,-0.006 -0.004,-0.005 -0.009,-0.009 -0.0137,-0.0137 -0.0116,-0.0119 -0.0236,-0.0233 -0.0351,-0.0351 -0.0355,-0.0368 -0.0719,-0.0727 -0.10742,-0.10938 -0.0502,-0.0521 -0.10388,-0.10048 -0.1543,-0.15234 -0.005,-0.005 -0.009,-0.009 -0.0137,-0.0137 -0.0212,-0.0218 -0.0432,-0.0427 -0.0645,-0.0645 -0.0364,-0.0378 -0.0748,-0.0736 -0.11133,-0.11132 -0.03,-0.0312 -0.0617,-0.0607 -0.0918,-0.0918 -0.0173,-0.0179 -0.0354,-0.0349 -0.0527,-0.0527 -0.0109,-0.0112 -0.0222,-0.022 -0.0332,-0.0332 -0.003,-0.003 -0.005,-0.005 -0.008,-0.008 -0.0217,-0.0225 -0.0446,-0.0439 -0.0664,-0.0664 -0.0422,-0.0438 -0.0866,-0.0853 -0.1289,-0.1289 -0.023,-0.0239 -0.0472,-0.0465 -0.0703,-0.0703 -0.003,-0.003 -0.005,-0.005 -0.008,-0.008 -0.007,-0.008 -0.0141,-0.0159 -0.0215,-0.0234 -0.0336,-0.0348 -0.0698,-0.0668 -0.10352,-0.10156 -0.0249,-0.0258 -0.0512,-0.0504 -0.0762,-0.0762 -0.002,-0.002 -0.004,-0.004 -0.006,-0.006 -0.008,-0.008 -0.0154,-0.0172 -0.0234,-0.0254 -0.0713,-0.074 -0.14701,-0.14327 -0.21875,-0.2168 -0.005,-0.005 -0.0105,-0.0103 -0.0156,-0.0156 -0.029,-0.0297 -0.0589,-0.0583 -0.0879,-0.0879 -0.003,-0.003 -0.007,-0.006 -0.01,-0.01 -0.0371,-0.0385 -0.0761,-0.0749 -0.11328,-0.11328 -0.0384,-0.0398 -0.0787,-0.0775 -0.11719,-0.11719 -0.0288,-0.0298 -0.0591,-0.0581 -0.0879,-0.0879 -0.0505,-0.0524 -0.10361,-0.10207 -0.1543,-0.15429 -0.0365,-0.0378 -0.0747,-0.0736 -0.11132,-0.11133 0,0 -0.002,-0.002 -0.002,-0.002 -0.003,-0.003 -0.007,-0.006 -0.01,-0.01 -0.038,-0.0395 -0.081,-0.0779 -0.11914,-0.11719 -0.001,-0.001 -0.003,-0.003 -0.004,-0.004 -0.002,-0.002 -0.002,-0.004 -0.004,-0.006 -0.0387,-0.0401 -0.0803,-0.0792 -0.11914,-0.11914 -0.003,-0.003 -0.007,-0.006 -0.01,-0.01 -0.04,-0.0415 -0.0829,-0.0798 -0.12305,-0.12109 -0.003,-0.003 -0.005,-0.007 -0.008,-0.01 -0.0399,-0.0414 -0.0849,-0.0817 -0.125,-0.12305 -0.003,-0.003 -0.005,-0.007 -0.008,-0.01 -0.0448,-0.0464 -0.0918,-0.0905 -0.13672,-0.13672 -0.0448,-0.0465 -0.0918,-0.0904 -0.13672,-0.13672 -0.046,-0.0477 -0.0944,-0.0931 -0.14063,-0.14062 -0.0467,-0.0484 -0.0957,-0.0944 -0.14257,-0.14258 -0.0364,-0.0378 -0.0748,-0.0737 -0.11133,-0.11133 -0.0594,-0.0617 -0.12193,-0.12021 -0.18164,-0.18164 -0.0474,-0.0491 -0.097,-0.0956 -0.14453,-0.14453 -10e-4,-10e-4 -0.003,-0.003 -0.004,-0.004 -0.0457,-0.0474 -0.0967,-0.0934 -0.14258,-0.14062 -0.004,-0.004 -0.006,-0.008 -0.01,-0.0117 -0.0505,-0.0524 -0.10359,-0.10215 -0.1543,-0.1543 -0.0511,-0.053 -0.1049,-0.10344 -0.15625,-0.15625 -0.0524,-0.0544 -0.10751,-0.10603 -0.16016,-0.16016 -0.0525,-0.0544 -0.10745,-0.10596 -0.16015,-0.16015 -0.0537,-0.0557 -0.11013,-0.10862 -0.16407,-0.16407 -0.0544,-0.0564 -0.11137,-0.10985 -0.16601,-0.16601 -0.055,-0.0571 -0.11268,-0.11115 -0.16797,-0.16797 -0.0557,-0.0577 -0.11399,-0.11244 -0.16992,-0.16992 -0.0448,-0.0464 -0.0918,-0.0905 -0.13672,-0.13672 -0.069,-0.0717 -0.14155,-0.13965 -0.21094,-0.21094 -0.0559,-0.058 -0.1157,-0.11219 -0.17187,-0.16992 -0.002,-0.002 -0.004,-0.006 -0.006,-0.008 -0.0588,-0.061 -0.1206,-0.11899 -0.17969,-0.17969 -0.0594,-0.0617 -0.1219,-0.12029 -0.18164,-0.18164 -0.0483,-0.05 -0.1,-0.0966 -0.14844,-0.14648 -0.0732,-0.076 -0.14905,-0.14904 -0.22265,-0.22461 -0.0154,-0.0159 -0.0315,-0.031 -0.0469,-0.0469 -0.0418,-0.0428 -0.085,-0.0842 -0.12695,-0.12695 -0.005,-0.005 -0.0105,-0.0104 -0.0156,-0.0156 -0.0627,-0.065 -0.12836,-0.12669 -0.1914,-0.1914 -0.0634,-0.0657 -0.12967,-0.128 -0.19336,-0.19336 -0.0639,-0.0663 -0.13106,-0.12937 -0.19532,-0.19531 -0.0652,-0.0676 -0.13366,-0.13197 -0.19922,-0.19922 -0.0531,-0.0551 -0.10875,-0.10726 -0.1621,-0.16211 -0.0789,-0.082 -0.16083,-0.16073 -0.24024,-0.24219 -0.0672,-0.0696 -0.13755,-0.13581 -0.20508,-0.20508 -0.0681,-0.0706 -0.14048,-0.13678 -0.20898,-0.20703 -0.0643,-0.0667 -0.13261,-0.12896 -0.19727,-0.19531 -0.004,-0.004 -0.008,-0.009 -0.0117,-0.0137 -0.0697,-0.0723 -0.14281,-0.14105 -0.21289,-0.21289 -0.0704,-0.073 -0.14403,-0.14226 -0.21484,-0.21485 -0.071,-0.0737 -0.14534,-0.14355 -0.2168,-0.2168 -0.0717,-0.0743 -0.14665,-0.14485 -0.21875,-0.21875 -0.0723,-0.075 -0.14795,-0.14614 -0.2207,-0.2207 -0.0735,-0.0762 -0.15065,-0.14883 -0.22461,-0.22461 -0.0742,-0.077 -0.15187,-0.15004 -0.22656,-0.22656 -0.0611,-0.0634 -0.12607,-0.12248 -0.1875,-0.18555 -0.0891,-0.0926 -0.18171,-0.18148 -0.27149,-0.27344 -0.0701,-0.0727 -0.14631,-0.14258 -0.21679,-0.21484 -0.005,-0.006 -0.0101,-0.012 -0.0156,-0.0176 -0.0636,-0.066 -0.13137,-0.12774 -0.19531,-0.19336 -0.091,-0.0946 -0.18562,-0.18537 -0.27734,-0.27929 -0.0786,-0.0815 -0.16111,-0.15922 -0.24024,-0.24024 -0.0793,-0.0822 -0.16241,-0.16052 -0.24219,-0.24219 -0.0665,-0.0689 -0.13628,-0.13455 -0.20312,-0.20312 -0.0939,-0.0976 -0.19444,-0.19221 -0.28906,-0.28906 -0.0675,-0.07 -0.13914,-0.13544 -0.20703,-0.20508 -0.0955,-0.0993 -0.19672,-0.19642 -0.29297,-0.29492 -0.0831,-0.0862 -0.17024,-0.16832 -0.25391,-0.25391 -0.07,-0.0726 -0.14445,-0.14071 -0.21484,-0.21289 -0.0981,-0.10193 -0.20193,-0.20162 -0.30078,-0.30273 -0.0714,-0.074 -0.14698,-0.14323 -0.21876,-0.2168 -0.0993,-0.10326 -0.20453,-0.20422 -0.30468,-0.30664 -0.0869,-0.0902 -0.17807,-0.17611 -0.26563,-0.26563 -0.0876,-0.0908 -0.17937,-0.17741 -0.26758,-0.26757 -0.0888,-0.0922 -0.18198,-0.18001 -0.27148,-0.27149 -0.089,-0.0922 -0.18188,-0.1799 -0.27148,-0.27148 -0.0828,-0.0858 -0.17057,-0.16669 -0.25391,-0.25196 -0.0908,-0.0943 -0.18585,-0.18375 -0.27734,-0.27734 -0.0915,-0.0949 -0.18716,-0.18505 -0.2793,-0.2793 -0.0921,-0.0956 -0.18846,-0.18635 -0.28125,-0.28125 -0.0856,-0.0889 -0.17552,-0.17346 -0.26172,-0.26172 -0.10828,-0.11255 -0.22084,-0.22046 -0.33008,-0.33203 -0.0866,-0.0898 -0.17839,-0.17448 -0.26562,-0.26367 -0.0953,-0.0989 -0.19499,-0.19284 -0.29102,-0.29101 -0.0959,-0.0996 -0.19629,-0.19415 -0.29297,-0.29297 -0.0894,-0.0929 -0.18335,-0.18125 -0.27344,-0.27344 -0.11274,-0.11721 -0.22996,-0.22957 -0.34374,-0.3457 -0.0905,-0.0938 -0.18623,-0.18228 -0.27735,-0.27539 -0.0991,-0.10293 -0.20281,-0.20064 -0.30273,-0.30274 -0.0998,-0.10359 -0.20411,-0.20194 -0.30469,-0.30469 -0.1004,-0.10425 -0.20541,-0.20324 -0.30664,-0.30664 -0.10094,-0.10481 -0.20682,-0.20464 -0.30859,-0.30859 -0.10168,-0.10559 -0.20803,-0.20584 -0.31055,-0.31055 -0.10285,-0.10681 -0.21074,-0.20854 -0.31445,-0.31445 -0.10349,-0.10747 -0.21205,-0.20984 -0.31641,-0.31641 -0.0971,-0.10084 -0.199,-0.19683 -0.29688,-0.29687 -0.12104,-0.12585 -0.2469,-0.24649 -0.36914,-0.3711 -0.0975,-0.10109 -0.20056,-0.19658 -0.29883,-0.29687 -0.0991,-0.10293 -0.20281,-0.20064 -0.30273,-0.30273 -0.12296,-0.12785 -0.2508,-0.2504 -0.375,-0.37696 -0.0997,-0.10341 -0.2061,-0.20016 -0.30664,-0.30273 -0.10872,-0.11291 -0.22235,-0.22013 -0.33203,-0.33203 -0.10253,-0.10649 -0.20911,-0.20887 -0.3125,-0.31446 -0.12615,-0.13116 -0.25731,-0.2569 -0.38477,-0.38672 -0.10196,-0.10573 -0.20969,-0.20569 -0.3125,-0.31054 -0.11178,-0.1161 -0.22898,-0.22676 -0.34179,-0.3418 -0.11307,-0.11743 -0.2316,-0.22936 -0.34571,-0.3457 -0.11317,-0.11755 -0.23147,-0.22925 -0.3457,-0.34571 -0.11434,-0.11875 -0.2342,-0.23196 -0.34961,-0.34961 -0.1151,-0.11953 -0.23538,-0.23314 -0.35156,-0.35156 -0.11574,-0.1202 -0.23669,-0.23445 -0.35352,-0.35351 -0.11605,-0.12054 -0.23831,-0.23413 -0.35547,-0.35352 -0.11018,-0.11445 -0.22475,-0.22447 -0.33593,-0.33789 -0.13445,-0.1398 -0.27423,-0.27384 -0.41016,-0.41211 -0.10899,-0.11303 -0.22402,-0.22001 -0.33398,-0.33203 -0.11957,-0.12419 -0.2445,-0.24226 -0.36524,-0.36523 -0.1202,-0.12486 -0.2458,-0.24356 -0.36719,-0.36719 -0.11368,-0.11809 -0.23291,-0.23067 -0.34765,-0.34766 -0.13891,-0.14446 -0.28334,-0.28296 -0.42383,-0.42578 -0.11283,-0.117 -0.23184,-0.22782 -0.3457,-0.34375 -0.12309,-0.12785 -0.25263,-0.24844 -0.37696,-0.375 -0.12405,-0.12886 -0.25359,-0.25135 -0.3789,-0.37891 -0.12501,-0.12985 -0.25458,-0.25428 -0.38086,-0.38281 -0.12519,-0.13003 -0.25635,-0.25411 -0.38281,-0.38281 -0.12596,-0.13084 -0.25752,-0.25527 -0.38477,-0.38477 -0.1271,-0.13203 -0.26025,-0.258 -0.38867,-0.38867 -0.12774,-0.1327 -0.26155,-0.25931 -0.39063,-0.39062 -0.12135,-0.12607 -0.24853,-0.24628 -0.37109,-0.3711 -0.1472,-0.1531 -0.30024,-0.29991 -0.44922,-0.45117 -0.11232,-0.11648 -0.2304,-0.22638 -0.34375,-0.3418 -0.14848,-0.15442 -0.30284,-0.30252 -0.45313,-0.45507 -0.12081,-0.1253 -0.24908,-0.24314 -0.37109,-0.36719 -0.12551,-0.13039 -0.25601,-0.25571 -0.38281,-0.38477 -0.15104,-0.15708 -0.30804,-0.30774 -0.46094,-0.46289 -0.12256,-0.1271 -0.25121,-0.24722 -0.375,-0.37304 -0.13476,-0.14001 -0.27586,-0.27365 -0.41211,-0.41211 -0.1354,-0.14067 -0.27716,-0.27495 -0.41406,-0.41407 -0.13602,-0.14131 -0.27848,-0.27626 -0.41602,-0.41601 -0.12965,-0.1347 -0.26546,-0.26322 -0.39648,-0.39649 -0.15614,-0.1624 -0.31843,-0.31818 -0.47656,-0.47851 -0.12721,-0.13192 -0.2621,-0.25617 -0.39063,-0.38672 -0.13202,-0.13717 -0.26889,-0.26861 -0.40234,-0.4043 -0.14528,-0.15111 -0.29635,-0.29599 -0.44336,-0.44531 -0.15397,-0.16001 -0.3148,-0.31271 -0.4707,-0.4707 -0.12993,-0.13474 -0.26714,-0.26123 -0.39844,-0.39453 -0.14211,-0.14766 -0.28983,-0.28961 -0.4336,-0.43555 -0.14319,-0.14879 -0.29262,-0.29046 -0.4375,-0.4375 -0.14383,-0.14945 -0.29392,-0.29176 -0.43945,-0.43945 -0.14447,-0.15012 -0.29522,-0.29307 -0.44141,-0.44141 -0.14511,-0.15078 -0.29652,-0.29437 -0.44335,-0.44336 -0.14593,-0.15162 -0.2996,-0.2955 -0.44727,-0.44531 -0.13969,-0.14515 -0.2845,-0.28425 -0.42578,-0.42774 -0.16634,-0.17304 -0.33921,-0.33907 -0.50781,-0.50976 -0.12945,-0.13424 -0.26567,-0.26171 -0.39649,-0.39453 -0.16826,-0.17504 -0.34309,-0.343 -0.51367,-0.51563 -0.1376,-0.1427 -0.28273,-0.27687 -0.42187,-0.41797 -0.15041,-0.15628 -0.30673,-0.30657 -0.45899,-0.46093 -0.15133,-0.15726 -0.30969,-0.30759 -0.46289,-0.4629 -0.15214,-0.15809 -0.31081,-0.30871 -0.46484,-0.46484 -0.15278,-0.15875 -0.31212,-0.31002 -0.4668,-0.4668 -0.15358,-0.15959 -0.31519,-0.31115 -0.4707,-0.46875 -0.15407,-0.1601 -0.3147,-0.31261 -0.47071,-0.4707 -0.15518,-0.16127 -0.31745,-0.31538 -0.47461,-0.47461 -0.15581,-0.16192 -0.31875,-0.3167 -0.47656,-0.47656 -0.15646,-0.16259 -0.32006,-0.31801 -0.47851,-0.47852 -0.15743,-0.16359 -0.32103,-0.32093 -0.48047,-0.48242 -0.1582,-0.16441 -0.32413,-0.32014 -0.48438,-0.48242 -0.15869,-0.16491 -0.32362,-0.32356 -0.48437,-0.48633 -0.15748,-0.16365 -0.32292,-0.31892 -0.48243,-0.48047 -0.16265,-0.16909 -0.33127,-0.3312 -0.49609,-0.49804 -0.15907,-0.16532 -0.32519,-0.32317 -0.48633,-0.48633 -0.16375,-0.17024 -0.336,-0.33205 -0.50195,-0.5 -0.16236,-0.16875 -0.33157,-0.32959 -0.49609,-0.4961 -0.16348,-0.1699 -0.33434,-0.33236 -0.5,-0.5 -0.16411,-0.17056 -0.33564,-0.33368 -0.50196,-0.50195 -0.17848,-0.1855 -0.36383,-0.36408 -0.54492,-0.54687 -0.14711,-0.15257 -0.30229,-0.29654 -0.45117,-0.44727 -0.16955,-0.17636 -0.34568,-0.34561 -0.51758,-0.51953 -0.16903,-0.17575 -0.34425,-0.34426 -0.51562,-0.51758 -0.16793,-0.17454 -0.34344,-0.34153 -0.51368,-0.51367 -0.16825,-0.17487 -0.34505,-0.3412 -0.51562,-0.51367 -0.16986,-0.17655 -0.34732,-0.34544 -0.51953,-0.51953 -0.17003,-0.17673 -0.34714,-0.34527 -0.51953,-0.51954 -0.17114,-0.17787 -0.34991,-0.34804 -0.52344,-0.52343 -0.17176,-0.17853 -0.35122,-0.34937 -0.52539,-0.52539 -0.1724,-0.1792 -0.35251,-0.35068 -0.52734,-0.52735 -0.17304,-0.17986 -0.35381,-0.35198 -0.5293,-0.52929 -0.17401,-0.18087 -0.35477,-0.35492 -0.53125,-0.53321 -0.17279,-0.1796 -0.35407,-0.35027 -0.5293,-0.52734 -0.17733,-0.1844 -0.36111,-0.36125 -0.54101,-0.54297 -0.17591,-0.18285 -0.36063,-0.35689 -0.53907,-0.53711 -0.1775,-0.18452 -0.36288,-0.36112 -0.54297,-0.54297 -0.178,-0.18504 -0.36237,-0.36257 -0.54296,-0.54492 -0.17845,-0.18549 -0.36583,-0.36214 -0.54688,-0.54492 -0.18663,-0.19401 -0.38083,-0.37927 -0.57031,-0.57031 -0.17483,-0.18153 -0.35783,-0.35428 -0.53516,-0.53321 -0.17379,-0.1806 -0.35498,-0.35321 -0.53125,-0.53125 -0.18686,-0.19442 -0.38059,-0.38081 -0.57031,-0.57226 -0.18015,-0.18727 -0.36798,-0.36627 -0.55078,-0.55078 -0.18499,-0.19238 -0.37667,-0.37694 -0.56445,-0.56641 -0.1842,-0.19148 -0.37749,-0.3739 -0.56446,-0.5625 -0.18388,-0.19115 -0.37585,-0.37422 -0.5625,-0.5625 -0.1858,-0.19316 -0.37974,-0.37813 -0.56836,-0.56836 -0.18598,-0.19335 -0.37955,-0.37795 -0.56836,-0.56836 -0.18706,-0.19448 -0.38234,-0.38076 -0.57226,-0.57226 -0.1879,-0.19535 -0.38344,-0.38188 -0.57422,-0.57422 -0.18854,-0.19601 -0.38473,-0.38319 -0.57617,-0.57618 -0.18918,-0.19667 -0.38602,-0.38449 -0.57813,-0.57812 -0.18982,-0.19734 -0.38731,-0.3858 -0.58008,-0.58008 -0.19026,-0.1978 -0.3888,-0.3873 -0.58203,-0.58203 -0.18938,-0.19691 -0.38776,-0.38427 -0.58008,-0.57813 -0.19456,-0.20237 -0.39608,-0.39654 -0.59375,-0.5957 -0.193,-0.20067 -0.39379,-0.39234 -0.58984,-0.58984 -0.19364,-0.20134 -0.39509,-0.39365 -0.5918,-0.5918 -0.19471,-0.20245 -0.39789,-0.39647 -0.5957,-0.5957 -0.19492,-0.20267 -0.39768,-0.39627 -0.5957,-0.5957 -0.196,-0.20379 -0.40047,-0.39909 -0.59961,-0.59961 -0.19664,-0.20446 -0.40176,-0.4004 -0.60156,-0.60157 -0.1976,-0.20545 -0.40468,-0.40138 -0.60547,-0.60351 -0.19844,-0.20634 -0.40381,-0.40444 -0.60547,-0.60742 -0.19855,-0.20644 -0.40566,-0.40434 -0.60742,-0.60743 -0.20002,-0.20799 -0.40804,-0.40674 -0.61133,-0.61132 -0.20066,-0.20866 -0.40933,-0.40806 -0.61328,-0.61329 -0.2013,-0.20931 -0.41063,-0.40936 -0.61524,-0.61523 -0.19927,-0.20721 -0.40686,-0.40554 -0.60937,-0.60938 -0.20552,-0.21379 -0.41994,-0.4187 -0.62891,-0.6289 -0.20119,-0.2092 -0.41074,-0.40947 -0.61523,-0.61524 -0.207,-0.21533 -0.42231,-0.42112 -0.63282,-0.63281 -0.20513,-0.2133 -0.41838,-0.41722 -0.62695,-0.62695 -0.2031,-0.2112 -0.41462,-0.41341 -0.62109,-0.6211 -0.2087,-0.2171 -0.42641,-0.42527 -0.63867,-0.63867 -0.20704,-0.21531 -0.42228,-0.42115 -0.63282,-0.63281 -0.21576,-0.22439 -0.44058,-0.43973 -0.66015,-0.66016 -0.20419,-0.21209 -0.41741,-0.4145 -0.625,-0.62304 -0.20251,-0.21052 -0.41328,-0.41212 -0.61914,-0.61914 -0.21259,-0.22126 -0.43411,-0.43299 -0.65039,-0.65039 -0.2135,-0.22211 -0.43513,-0.43608 -0.65235,-0.6543 -0.20917,-0.21753 -0.42788,-0.42487 -0.64062,-0.63867 -0.21263,-0.22123 -0.43407,-0.43301 -0.65039,-0.65039 -0.21359,-0.22222 -0.43503,-0.43596 -0.65235,-0.6543 -0.22061,-0.22952 -0.45119,-0.44845 -0.67578,-0.67383 -0.20637,-0.21448 -0.42101,-0.42 -0.63086,-0.63086 -0.21739,-0.22625 -0.44281,-0.44378 -0.66406,-0.66601 -0.21644,-0.22521 -0.44184,-0.4409 -0.66211,-0.66211 -0.2174,-0.2262 -0.44475,-0.44189 -0.66602,-0.66406 -0.21742,-0.22623 -0.44277,-0.44382 -0.66406,-0.66602 -0.22144,-0.23041 -0.45229,-0.4515 -0.67773,-0.67774 -0.22352,-0.23247 -0.456,-0.45537 -0.6836,-0.68359 -0.21881,-0.22742 -0.4472,-0.44462 -0.66992,-0.66797 -0.22102,-0.22978 -0.45077,-0.45015 -0.67578,-0.67578 -0.21464,-0.22314 -0.43785,-0.43702 -0.65625,-0.65625 -0.22407,-0.23322 -0.45737,-0.45659 -0.68555,-0.68555 -0.22591,-0.23507 -0.46132,-0.46067 -0.6914,-0.6914 -0.22098,-0.22985 -0.45082,-0.45009 -0.67578,-0.67578 -0.22474,-0.23387 -0.45864,-0.45793 -0.6875,-0.6875 -0.22569,-0.23487 -0.4596,-0.46088 -0.68946,-0.69141 -0.23304,-0.2425 -0.47541,-0.47501 -0.71289,-0.71289 -0.21879,-0.22743 -0.44722,-0.44461 -0.66992,-0.66797 -0.22919,-0.23855 -0.46769,-0.46709 -0.70117,-0.70117 -0.22824,-0.23752 -0.46477,-0.46613 -0.69727,-0.69922 -0.2295,-0.23884 -0.46931,-0.46681 -0.70312,-0.70117 -0.22985,-0.2392 -0.46896,-0.46843 -0.70313,-0.70313 -0.23323,-0.24272 -0.4752,-0.47675 -0.71289,-0.71484 -0.23594,-0.24545 -0.48216,-0.48 -0.72265,-0.7207 -0.2236,-0.23243 -0.45592,-0.45542 -0.6836,-0.6836 -0.24438,-0.25439 -0.49879,-0.49874 -0.74804,-0.74804 -0.22237,-0.23106 -0.45329,-0.45284 -0.67969,-0.67969 -0.23617,-0.24588 -0.48193,-0.48153 -0.72266,-0.72266 -0.23801,-0.24771 -0.48587,-0.48562 -0.72851,-0.72851 -0.2334,-0.24281 -0.47505,-0.47668 -0.71289,-0.71485 -0.23984,-0.24962 -0.48985,-0.48769 -0.73438,-0.73242 -0.23799,-0.24759 -0.48394,-0.48574 -0.72656,-0.72851 -0.23468,-0.24413 -0.47958,-0.47736 -0.71875,-0.7168 -0.24248,-0.25239 -0.49491,-0.49481 -0.74219,-0.74219 -0.23692,-0.24647 -0.48311,-0.48291 -0.72461,-0.72461 -0.24367,-0.25363 -0.49562,-0.49752 -0.74414,-0.74609 -0.24149,-0.25124 -0.49203,-0.49201 -0.73828,-0.73828 -0.23912,-0.24878 -0.48863,-0.48656 -0.73242,-0.73047 -0.24566,-0.2557 -0.50137,-0.5014 -0.75196,-0.75196 -0.24341,-0.25325 -0.49589,-0.49593 -0.74414,-0.74414 -0.24476,-0.25466 -0.49839,-0.50043 -0.74804,-0.75 -0.24475,-0.25463 -0.50037,-0.49851 -0.75,-0.74804 -0.24636,-0.25633 -0.50259,-0.50275 -0.75391,-0.75391 -0.24661,-0.25658 -0.50233,-0.5025 -0.75391,-0.75391 -0.24456,-0.25445 -0.49859,-0.49868 -0.74804,-0.74804 -0.25803,-0.26861 -0.5256,-0.52613 -0.78907,-0.78906 -0.24502,-0.25466 -0.50008,-0.49851 -0.75,-0.74805 -0.24302,-0.25275 -0.49434,-0.49642 -0.74218,-0.74414 -0.25148,-0.26184 -0.51289,-0.51309 -0.76953,-0.76953 -0.25394,-0.26435 -0.51815,-0.5185 -0.77735,-0.77735 -0.25603,-0.26641 -0.52182,-0.52237 -0.7832,-0.7832 -0.25166,-0.26169 -0.51271,-0.51324 -0.76953,-0.76953 -0.24652,-0.2564 -0.50243,-0.50269 -0.75391,-0.75391 -0.25862,-0.2693 -0.52693,-0.52741 -0.79101,-0.79101 -0.2586,-0.26909 -0.52696,-0.52763 -0.79102,-0.79102 -0.24813,-0.25805 -0.50661,-0.50501 -0.75977,-0.75781 -0.2606,-0.27136 -0.53071,-0.53326 -0.79687,-0.79883 -0.25718,-0.26761 -0.52453,-0.52513 -0.78711,-0.78711 -0.26484,-0.27558 -0.53998,-0.54094 -0.81055,-0.81055 -0.24788,-0.25765 -0.50491,-0.50538 -0.75781,-0.75781 -0.26711,-0.27815 -0.54542,-0.54434 -0.81836,-0.8164 -0.25963,-0.27003 -0.52784,-0.53065 -0.79297,-0.79493 -0.26119,-0.27168 -0.53206,-0.53295 -0.79883,-0.79882 -0.2548,-0.26505 -0.51919,-0.51979 -0.77929,-0.7793 -0.26691,-0.27796 -0.54368,-0.54452 -0.81641,-0.81641 -0.26688,-0.27773 -0.54371,-0.54474 -0.8164,-0.8164 -0.25611,-0.26636 -0.52176,-0.52243 -0.78321,-0.78321 -0.2692,-0.28035 -0.54909,-0.55004 -0.82422,-0.82422 -0.27248,-0.28356 -0.55544,-0.55675 -0.83398,-0.83398 -0.25554,-0.26563 -0.52039,-0.52117 -0.78125,-0.78125 -0.26772,-0.27881 -0.54674,-0.54566 -0.82031,-0.81836 -0.27114,-0.28232 -0.55099,-0.55598 -0.82813,-0.83203 -0.26527,-0.27607 -0.54149,-0.54048 -0.8125,-0.81055 -0.26934,-0.28047 -0.54895,-0.54993 -0.82422,-0.82422 -0.277,-0.28845 -0.56438,-0.56575 -0.84765,-0.84765 -0.2631,-0.27367 -0.53594,-0.53692 -0.80469,-0.80469 -0.27951,-0.29112 -0.56958,-0.57101 -0.85547,-0.85547 -0.26502,-0.27566 -0.5398,-0.54087 -0.81055,-0.81055 -0.27684,-0.2883 -0.56455,-0.56588 -0.84765,-0.84765 -0.28076,-0.29221 -0.57218,-0.57389 -0.85938,-0.85938 -0.26414,-0.27461 -0.53876,-0.53797 -0.80859,-0.80664 -0.28242,-0.29413 -0.57435,-0.5779 -0.86328,-0.86523 -0.26917,-0.28001 -0.54915,-0.54844 -0.82422,-0.82227 -0.27731,-0.28881 -0.56406,-0.56735 -0.84766,-0.84961 -0.27763,-0.28912 -0.56568,-0.56705 -0.84961,-0.84961 -0.28832,-0.30026 -0.5877,-0.58964 -0.88281,-0.88281 -0.26892,-0.27961 -0.54745,-0.54882 -0.82226,-0.82226 -0.28049,-0.29214 -0.57247,-0.572 -0.85938,-0.85743 -0.28721,-0.29912 -0.58496,-0.58682 -0.87891,-0.8789 -0.27061,-0.28153 -0.55153,-0.55284 -0.82812,-0.82813 -0.28612,-0.2982 -0.58219,-0.58574 -0.875,-0.87695 -0.28974,-0.30177 -0.59013,-0.59211 -0.88672,-0.88672 -0.27681,-0.28799 -0.5646,-0.56424 -0.84766,-0.8457 -0.28495,-0.29681 -0.5795,-0.58317 -0.87109,-0.87305 -0.28527,-0.29712 -0.58113,-0.58287 -0.87305,-0.87305 -0.28559,-0.29745 -0.58275,-0.58255 -0.875,-0.87304 -0.29357,-0.30578 -0.59783,-0.60001 -0.89843,-0.89844 -0.28065,-0.292 -0.57036,-0.57409 -0.85743,-0.85938 -0.28876,-0.30078 -0.58919,-0.58913 -0.88476,-0.88281 -0.28879,-0.30079 -0.58722,-0.59109 -0.88281,-0.88476 -0.28973,-0.30179 -0.59015,-0.5921 -0.88672,-0.88672 -0.29036,-0.30245 -0.59143,-0.59342 -0.88868,-0.88867 -0.29466,-0.30694 -0.60058,-0.60282 -0.90234,-0.90235 -0.29522,-0.30735 -0.60197,-0.60243 -0.9043,-0.90234 -0.2934,-0.3053 -0.59606,-0.60048 -0.89648,-0.89844 -0.29339,-0.30527 -0.59804,-0.59856 -0.89844,-0.89648 -0.29436,-0.3063 -0.59897,-0.60149 -0.90039,-0.90039 -0.28462,-0.29617 -0.57986,-0.58184 -0.87109,-0.8711 -0.2992,-0.31186 -0.60951,-0.61179 -0.91602,-0.91601 -0.30341,-0.3161 -0.6168,-0.62145 -0.92773,-0.92969 -0.29753,-0.30961 -0.60541,-0.6081 -0.91016,-0.91016 -0.29146,-0.3033 -0.59418,-0.59457 -0.89258,-0.89062 -0.29894,-0.31145 -0.60782,-0.6122 -0.91406,-0.91602 -0.29928,-0.31177 -0.60943,-0.61189 -0.91601,-0.91601 -0.30723,-0.32008 -0.62648,-0.62744 -0.94141,-0.93946 -0.30137,-0.31362 -0.61311,-0.616 -0.92188,-0.92187 -0.302,-0.31429 -0.61439,-0.61733 -0.92382,-0.92383 -0.29626,-0.3083 -0.60284,-0.60543 -0.90625,-0.90625 -0.31014,-0.3231 -0.63124,-0.63434 -0.94922,-0.94922 -0.29752,-0.30962 -0.60542,-0.60809 -0.91016,-0.91016 -0.3047,-0.31744 -0.61936,-0.62407 -0.93164,-0.93359 -0.30532,-0.3181 -0.62261,-0.62345 -0.93555,-0.93359 -0.30628,-0.31912 -0.62355,-0.62639 -0.9375,-0.9375 -0.3109,-0.32393 -0.63238,-0.63745 -0.95117,-0.95313 -0.31114,-0.32399 -0.63409,-0.63544 -0.95312,-0.95117 -0.3023,-0.31462 -0.61409,-0.61896 -0.92383,-0.92578 -0.30915,-0.32209 -0.63031,-0.63138 -0.94727,-0.94531 -0.31713,-0.33043 -0.64536,-0.64887 -0.9707,-0.97071 -0.30421,-0.31661 -0.61794,-0.62292 -0.92969,-0.93164 -0.31135,-0.32441 -0.63386,-0.63699 -0.95312,-0.95312 -0.3163,-0.32958 -0.64429,-0.64772 -0.96875,-0.96875 -0.30924,-0.32202 -0.63023,-0.63146 -0.94727,-0.94531 -0.31392,-0.32712 -0.63897,-0.64224 -0.96094,-0.96094 -0.32158,-0.3351 -0.65435,-0.65812 -0.98437,-0.98438 -0.30931,-0.32195 -0.6282,-0.63347 -0.94531,-0.94726 -0.32222,-0.33574 -0.65565,-0.65946 -0.98633,-0.98633 -0.31791,-0.33092 -0.64651,-0.65036 -0.97266,-0.97266 -0.31792,-0.3309 -0.64649,-0.65038 -0.97265,-0.97265 -0.30786,-0.32043 -0.62778,-0.62907 -0.94336,-0.94141 -0.32913,-0.34317 -0.66985,-0.6739 -1.00782,-1.00781 -0.31406,-0.32694 -0.63883,-0.64242 -0.96093,-0.96094 -0.32669,-0.34041 -0.66461,-0.66871 -1,-1 -0.31839,-0.33144 -0.64796,-0.65182 -0.97461,-0.97461 -0.31575,-0.32886 -0.64292,-0.64645 -0.9668,-0.9668 -0.33295,-0.34716 -0.67753,-0.68184 -1.01953,-1.01953 -0.3179,-0.33092 -0.64652,-0.65035 -0.97266,-0.97265 -0.32987,-0.34374 -0.67101,-0.67533 -1.00976,-1.00977 -0.32219,-0.33542 -0.65569,-0.65976 -0.98633,-0.98633 -0.32624,-0.33982 -0.66508,-0.66731 -1,-0.99804 -0.3199,-0.33321 -0.65027,-0.65601 -0.97852,-0.98047 -0.33739,-0.35184 -0.68651,-0.69111 -1.0332,-1.03321 -0.32236,-0.33561 -0.6555,-0.65959 -0.98633,-0.98632 -0.32858,-0.34243 -0.66847,-0.67267 -1.00586,-1.00586 -0.32984,-0.34377 -0.67105,-0.6753 -1.00976,-1.00977 -0.3375,-0.35175 -0.68642,-0.69119 -1.03321,-1.0332 -0.32554,-0.33892 -0.66191,-0.66623 -0.99609,-0.9961 -0.33815,-0.35239 -0.68768,-0.69253 -1.03516,-1.03515 -0.33384,-0.34756 -0.67856,-0.68345 -1.02148,-1.02149 -0.32989,-0.34341 -0.67101,-0.67369 -1.00977,-1.00781 -0.33456,-0.34852 -0.67974,-0.68448 -1.02343,-1.02344 -0.33247,-0.34633 -0.67415,-0.68264 -1.01563,-1.01953 -0.34164,-0.35605 -0.69572,-0.69885 -1.04687,-1.04492 -0.33063,-0.34425 -0.67219,-0.6768 -1.01172,-1.01172 -0.33686,-0.35108 -0.68514,-0.68986 -1.03125,-1.03125 -0.3378,-0.3521 -0.68805,-0.69086 -1.03516,-1.0332 -0.34577,-0.36044 -0.70307,-0.70838 -1.05859,-1.05859 -0.33414,-0.34793 -0.67825,-0.68505 -1.02149,-1.02344 -0.34578,-0.3604 -0.70305,-0.70843 -1.05859,-1.0586 -0.3381,-0.35206 -0.68775,-0.69285 -1.03516,-1.03515 -0.34648,-0.36099 -0.70428,-0.70982 -1.06054,-1.06055 -0.33176,-0.34539 -0.67491,-0.67964 -1.01563,-1.01562 -0.3533,-0.3685 -0.71854,-0.72422 -1.08203,-1.08204 -0.33462,-0.34844 -0.67969,-0.68455 -1.02344,-1.02343 -0.35394,-0.36916 -0.71982,-0.72554 -1.08398,-1.08399 -0.34286,-0.35706 -0.69834,-0.70181 -1.05078,-1.04883 -0.33992,-0.35416 -0.69168,-0.69672 -1.04102,-1.04101 -0.3498,-0.36486 -0.71052,-0.71787 -1.07031,-1.07227 -0.35466,-0.36975 -0.72102,-0.72694 -1.08594,-1.08593 -0.34575,-0.36007 -0.70311,-0.70874 -1.05859,-1.0586 -0.35412,-0.36898 -0.71965,-0.72572 -1.08399,-1.08398 -0.35041,-0.36486 -0.71185,-0.71791 -1.07226,-1.07227 -0.34469,-0.35889 -0.70033,-0.70595 -1.05469,-1.05469 -0.35693,-0.37205 -0.72643,-0.73064 -1.09375,-1.09179 -0.34751,-0.36192 -0.70516,-0.71286 -1.0625,-1.06446 -0.35151,-0.36639 -0.71459,-0.72034 -1.07617,-1.07617 -0.354,-0.36911 -0.71976,-0.72559 -1.08399,-1.08398 -0.35464,-0.36978 -0.72103,-0.72692 -1.08593,-1.08594 -0.36198,-0.37742 -0.73672,-0.74121 -1.10938,-1.10742 -0.35401,-0.36873 -0.71977,-0.72597 -1.08398,-1.08399 -0.35047,-0.36519 -0.71179,-0.71757 -1.07227,-1.07226 -0.3603,-0.37586 -0.73262,-0.73877 -1.10351,-1.10352 -0.35848,-0.37379 -0.72871,-0.73486 -1.09766,-1.09765 -0.36581,-0.38144 -0.74243,-0.75111 -1.11914,-1.1211 -0.36248,-0.37757 -0.7362,-0.74303 -1.10938,-1.10937 -0.34963,-0.36408 -0.71072,-0.71473 -1.07031,-1.06836 -0.3708,-0.38685 -0.75274,-0.76164 -1.13476,-1.13672 -0.35305,-0.36775 -0.71884,-0.72299 -1.08203,-1.08008 -0.37272,-0.38884 -0.75658,-0.76562 -1.14063,-1.14258 -0.36107,-0.3761 -0.73379,-0.73856 -1.10547,-1.10351 -0.36477,-0.38014 -0.74158,-0.74843 -1.11719,-1.11719 -0.37035,-0.38596 -0.75128,-0.76054 -1.13281,-1.13477 -0.36177,-0.37671 -0.735,-0.73994 -1.10742,-1.10546 -0.36705,-0.38251 -0.74502,-0.75206 -1.12305,-1.12305 -0.36059,-0.37578 -0.73233,-0.74081 -1.10351,-1.10547 -0.37748,-0.39383 -0.76715,-0.77462 -1.15625,-1.15625 -0.36642,-0.38172 -0.7457,-0.75086 -1.12305,-1.12109 -0.3748,-0.39063 -0.76024,-0.76983 -1.14648,-1.14844 -0.37081,-0.38616 -0.75278,-0.76036 -1.13477,-1.13477 -0.36007,-0.37498 -0.73289,-0.73766 -1.10352,-1.10156 -0.3813,-0.39785 -0.7748,-0.78257 -1.16796,-1.16797 -0.37054,-0.38602 -0.75306,-0.76048 -1.13477,-1.13476 -0.37405,-0.38985 -0.75909,-0.76666 -1.14453,-1.14453 -0.37469,-0.39052 -0.76036,-0.76799 -1.14649,-1.14649 -0.37532,-0.39118 -0.76163,-0.76931 -1.14843,-1.14844 -0.36854,-0.3841 -0.74931,-0.75642 -1.12891,-1.1289 -0.38606,-0.40286 -0.78342,-0.79351 -1.18164,-1.1836 -0.37469,-0.39037 -0.76232,-0.76812 -1.14844,-1.14648 -0.37808,-0.39409 -0.76848,-0.77635 -1.1582,-1.1582 -10.71748,-11.17137 -26.18,-17.47985 -42.50195,-16.08985 -16.03831,1.36581 -29.37311,10.37773 -38.05079,22.86524 -0.20436,-0.20616 -0.41946,-0.40065 -0.62695,-0.60352 -0.37439,-0.38787 -0.7574,-0.76593 -1.14258,-1.14258 -0.38325,-0.39714 -0.77535,-0.78455 -1.16992,-1.16992 -0.36739,-0.3803 -0.74332,-0.75159 -1.12109,-1.12109 -0.38161,-0.39563 -0.77318,-0.78011 -1.16602,-1.16406 -0.37725,-0.3909 -0.76218,-0.77286 -1.15039,-1.15235 -0.37936,-0.39318 -0.76775,-0.77655 -1.1582,-1.1582 -8.13007,-8.42608 -18.81714,-14.25842 -31.19922,-15.53906 -1.60821,-0.16634 -3.21012,-0.2567 -4.80078,-0.27539 z"
       id="path3083"
       transform="scale(0.26458333)"
       clip-path="url(#clipPath880)"
       inkscape:connector-curvature="0" />
  </g>
  <g
     transform="translate(-17,-204.04994)"
     id="layer1"
     inkscape:groupmode="layer"
     inkscape:label="middlehat">
    <path
       style="opacity:0.3;fill:#000000;fill-opacity:1;stroke:none;stroke-width:0.19120367px;stroke-linecap:butt;stroke-linejoin:miter;stroke-opacity:1;filter:url(#filter898)"
       d="m 52.079338,241.06 h 4 v 12.441 h -4 z"
       id="path860"
       inkscape:connector-curvature="0"
       sodipodi:nodetypes="ccccc" />
    <path
       sodipodi:nodetypes="ccccc"
       inkscape:connector-curvature="0"
       id="path902"
       d="m 44.671,241.06 h 4 v 12.441 h -4 z"
       style="opacity:0.3;fill:#000000;fill-opacity:1;stroke:none;stroke-width:0.19120367px;stroke-linecap:butt;stroke-linejoin:miter;stroke-opacity:1;filter:url(#filter898)" />
    <path
       style="display:inline;opacity:0.13999999;fill:#000000;fill-opacity:1;stroke:none;stroke-width:0.40518576px;stroke-linecap:butt;stroke-linejoin:miter;stroke-opacity:1;filter:url(#filter11737)"
       d="m 35.346858,262.50374 h 36.651 v 6.09741 h -36.651 z"
       id="path11731"
       inkscape:connector-curvature="0"
       sodipodi:nodetypes="ccccc" />
    <g
       style="display:inline;opacity:0.3;fill:none;fill-opacity:0.9818184;stroke:#000000;stroke-opacity:1;filter:url(#filter11717)"
       id="g11691">
      <g
         id="g11687"
         style="fill:none;fill-opacity:0.9818184;stroke:#000000;stroke-opacity:1">
        <path
           inkscape:connector-curvature="0"
           id="path11681"
           d="m 54.052218,230.08379 c -0.295269,-5.62319 -4.640703,-10.19426 -10.241766,-10.77356 -5.60106,-0.5793 -10.790042,3.00565 -12.229929,8.44938 -1.43989,5.44373 1.298036,11.12538 6.453028,13.3911 l -0.01043,17.26529 h 31.652274 l 0.01683,-16.996 c 5.305754,-2.05294 8.295071,-7.69412 7.014321,-13.23716 -1.28075,-5.54304 -6.441909,-9.30126 -12.110468,-8.81852 -5.668558,0.48274 -10.119901,5.05956 -10.444914,10.73934"
           style="opacity:0.98000004;fill:none;fill-opacity:0.9818184;stroke:#000000;stroke-width:5;stroke-linecap:butt;stroke-linejoin:miter;stroke-miterlimit:4;stroke-dasharray:none;stroke-opacity:1;paint-order:fill markers stroke"
           sodipodi:nodetypes="cssccccssc" />
        <g
           id="g11683"
           style="fill:none;fill-opacity:0.9818184;stroke:#000000;stroke-opacity:1" />
        <g
           id="g11685"
           style="fill:none;fill-opacity:0.9818184;stroke:#000000;stroke-opacity:1"
           transform="matrix(1,0,0,0.89297262,-6.566198,24.493838)" />
      </g>
      <rect
         style="opacity:1;fill:none;fill-opacity:0.9818184;stroke:#000000;stroke-width:0;stroke-linecap:butt;stroke-linejoin:miter;stroke-miterlimit:4;stroke-dasharray:none;stroke-opacity:1;paint-order:fill markers stroke"
         id="rect11689"
         width="26.651365"
         height="5.2388606"
         x="40.525261"
         y="255.68114" />
    </g>
    <path
       style="opacity:0.3;fill:#000000;fill-opacity:1;stroke:none;stroke-width:0.42468512px;stroke-linecap:butt;stroke-linejoin:miter;stroke-opacity:1;filter:url(#filter1227)"
       d="m 35.44007,263.49026 h 36.651 v 6.6984 h -36.651 z"
       id="path23391"
       inkscape:connector-curvature="0"
       sodipodi:nodetypes="ccccc" />
    <ellipse
       ry="32.342892"
       rx="32.342896"
       cy="243"
       cx="54"
       id="path1392"
       style="opacity:0.98000004;fill:none;fill-opacity:1;stroke:none;stroke-width:1.31421256;stroke-linecap:round;stroke-linejoin:round;stroke-miterlimit:4;stroke-dasharray:none;stroke-opacity:0.33023257;paint-order:fill markers stroke" />
    <path
       sodipodi:nodetypes="cssccccssc"
       style="opacity:0.98000004;fill:none;fill-opacity:1;stroke:#ffffff;stroke-width:5;stroke-linecap:butt;stroke-linejoin:round;stroke-miterlimit:4;stroke-dasharray:none;stroke-opacity:1;paint-order:fill markers stroke"
       d="m 54.052218,230.08379 c -0.295269,-5.62319 -4.640703,-10.19426 -10.241766,-10.77356 -5.60106,-0.5793 -10.790042,3.00565 -12.229929,8.44938 -1.43989,5.44373 1.298036,11.12538 6.453028,13.3911 l -0.01043,17.26529 h 31.652274 l 0.01683,-16.996 c 5.305754,-2.05294 8.295071,-7.69412 7.014321,-13.23716 -1.28075,-5.54304 -6.441909,-9.30126 -12.110468,-8.81852 -5.668558,0.48274 -10.119901,5.05956 -10.444914,10.73934"
       id="path1398"
       inkscape:connector-curvature="0" />
    <g
       style="fill:#ffffff;fill-opacity:1"
       id="g1464"
       transform="translate(-0.098946,-0.01987)" />
    <g
       transform="matrix(1,0,0,0.89297262,-6.665144,24.473968)"
       style="fill:#ffffff;fill-opacity:1"
       id="g1468" />
    <path
       style="display:inline;fill:none;stroke:#ffffff;stroke-width:6.70960522;stroke-linecap:round;stroke-linejoin:miter;stroke-miterlimit:4;stroke-dasharray:none;stroke-opacity:1"
       d="M 38.923583,266.83337 H 68.549972"
       id="path935"
       inkscape:connector-curvature="0" />
    <path
       style="fill:none;stroke:#ffffff;stroke-width:4;stroke-linecap:round;stroke-linejoin:miter;stroke-miterlimit:4;stroke-dasharray:none;stroke-opacity:1"
       d="m 46.5922,242.33374 v 9.66795"
       id="path1285"
       inkscape:connector-curvature="0" />
    <path
       inkscape:connector-curvature="0"
       id="path1287"
       d="m 46.5922,242.33374 v 9.66795"
       style="fill:none;stroke:#ffffff;stroke-width:4;stroke-linecap:round;stroke-linejoin:miter;stroke-miterlimit:4;stroke-dasharray:none;stroke-opacity:1" />
    <path
       sodipodi:nodetypes="ccccc"
       inkscape:connector-curvature="0"
       id="path1291"
       d="m 59.487676,241.06 h 4 v 12.441 h -4 z"
       style="opacity:0.3;fill:#000000;fill-opacity:1;stroke:none;stroke-width:0.19120367px;stroke-linecap:butt;stroke-linejoin:miter;stroke-opacity:1;filter:url(#filter898)" />
    <path
       style="fill:none;stroke:#ffffff;stroke-width:4;stroke-linecap:round;stroke-linejoin:miter;stroke-miterlimit:4;stroke-dasharray:none;stroke-opacity:1"
       d="m 54.000538,242.33374 v 9.66795"
       id="path1293"
       inkscape:connector-curvature="0" />
    <path
       inkscape:connector-curvature="0"
       id="path1295"
       d="m 61.408876,242.33374 v 9.66795"
       style="fill:none;stroke:#ffffff;stroke-width:4;stroke-linecap:round;stroke-linejoin:miter;stroke-miterlimit:4;stroke-dasharray:none;stroke-opacity:1" />
  </g>
  <g
     inkscape:groupmode="layer"
     id="layer2"
     inkscape:label="circletop"
     style="display:inline"
     transform="translate(-17,-15.049942)">
    <path
       clip-path="url(#clipPath19808)"
       style="opacity:0.15;fill:#000000;fill-opacity:1;stroke:none;stroke-width:1;stroke-linecap:round;stroke-linejoin:round;stroke-miterlimit:4;stroke-dasharray:none;stroke-opacity:1;paint-order:fill markers stroke"
       d="m 54.150698,22.298897 c -4.453395,-0.05642 -8.719611,2.508136 -10.621057,6.842994 -1.664076,3.793714 -1.103842,8.001171 1.111562,11.163141 0.105061,0.149952 0.213632,0.297778 0.326078,0.442867 4.42e-4,5.72e-4 0.0011,9.79e-4 0.0016,0.0016 0.112472,0.145071 0.228563,0.287983 0.348298,0.427881 0.0013,0.0015 0.0029,0.0027 0.0041,0.0041 0.11902,0.138919 0.241353,0.275257 0.367419,0.408763 5.9e-4,6.24e-4 9.6e-4,0.0014 0.0016,0.0021 8.37e-4,8.86e-4 0.0017,0.0017 0.0026,0.0026 0.0028,0.003 0.0059,0.0058 0.0088,0.0088 0.0018,0.0019 0.0038,0.0037 0.0057,0.0057 0.0023,0.0025 0.0049,0.0048 0.0072,0.0072 0.0027,0.0028 0.0056,0.0054 0.0083,0.0083 0.003,0.0032 0.0063,0.0061 0.0093,0.0093 0.0033,0.0035 0.007,0.0068 0.01034,0.01034 0.0037,0.0039 0.0077,0.0075 0.01137,0.01137 0.107284,0.111781 0.215429,0.223036 0.327631,0.330729 5.27e-4,5.08e-4 10e-4,10e-4 0.0016,0.0016 8.78e-4,8.46e-4 0.0022,0.0023 0.0031,0.0031 0.0012,0.0012 0.0029,0.003 0.0041,0.0041 0.0014,0.0014 0.0032,0.0033 0.0047,0.0046 0.0019,0.0019 0.0043,0.0043 0.0062,0.0062 0.0021,0.002 0.0046,0.0047 0.0067,0.0067 0.003,0.0029 0.0058,0.0059 0.0088,0.0088 0.0032,0.003 0.0061,0.0063 0.0093,0.0093 0.0035,0.0034 0.0068,0.007 0.01034,0.01033 0.0039,0.0037 0.0075,0.0077 0.01137,0.01137 0.0045,0.0043 0.0089,0.0086 0.01344,0.01292 0.0046,0.0044 0.0089,0.009 0.01344,0.01344 0.005,0.0048 0.0094,0.01017 0.01447,0.01499 0.0054,0.0052 0.01056,0.01078 0.01602,0.01602 0.0058,0.0056 0.01125,0.01148 0.01705,0.01705 0.0061,0.0058 0.012,0.01174 0.01808,0.01757 0.0065,0.0063 0.0126,0.01286 0.01912,0.01912 0.0069,0.0066 0.01328,0.01356 0.02015,0.02015 0.0091,0.0088 0.01771,0.0181 0.02687,0.02687 0.0051,0.0049 0.0099,0.01008 0.01499,0.01499 0.0087,0.0084 0.0166,0.01748 0.02532,0.02584 0.0083,0.008 0.01601,0.01634 0.02429,0.02429 0.0089,0.0086 0.01746,0.0173 0.02636,0.02584 0.009,0.0087 0.01736,0.01773 0.02635,0.02635 0.0097,0.0093 0.01873,0.01912 0.02842,0.02842 0.0099,0.0096 0.01899,0.01991 0.02894,0.02946 0.01009,0.0097 0.01984,0.01974 0.02997,0.02946 0.01053,0.01018 0.02044,0.02087 0.03101,0.031 0.01079,0.01044 0.02069,0.02165 0.03152,0.03204 0.01149,0.01112 0.02256,0.02252 0.03411,0.03359 0.01158,0.0112 0.02248,0.02295 0.03411,0.03411 0.01219,0.01179 0.02341,0.02443 0.03566,0.03617 0.01236,0.01196 0.02427,0.02426 0.03669,0.03617 0.01279,0.01238 0.02487,0.0254 0.03773,0.03772 0.01306,0.01265 0.02511,0.02617 0.03824,0.03876 0.0135,0.01307 0.02622,0.02678 0.03979,0.03979 0.01376,0.01333 0.02699,0.02703 0.04082,0.04031 0.01471,0.01426 0.02862,0.02923 0.04341,0.04341 0.01437,0.01393 0.02793,0.02852 0.04238,0.04238 0.01498,0.01452 0.02885,0.02999 0.04392,0.04444 0.01522,0.01476 0.02964,0.03027 0.04496,0.04496 0.01603,0.01555 0.03141,0.03156 0.04754,0.04703 0.01594,0.01546 0.03099,0.03165 0.04703,0.04702 0.01645,0.01596 0.03202,0.03271 0.04857,0.04857 0.01688,0.01639 0.03262,0.03384 0.04961,0.05013 0.01696,0.01647 0.03305,0.03375 0.05012,0.05013 0.01793,0.01741 0.03518,0.03541 0.05323,0.05271 0.01767,0.01717 0.0344,0.03513 0.0522,0.05219 0.01821,0.01769 0.03541,0.03617 0.05374,0.05374 0.01853,0.01801 0.03611,0.03688 0.05478,0.05478 0.01925,0.01871 0.03745,0.03825 0.05684,0.05684 0.01941,0.01888 0.0378,0.03861 0.05736,0.05736 0.01975,0.01921 0.03849,0.03932 0.05839,0.05839 0.01994,0.0194 0.03881,0.03965 0.05891,0.05891 0.02063,0.02008 0.04017,0.04104 0.06098,0.06098 0.02047,0.01992 0.03984,0.04069 0.06046,0.06046 0.02165,0.02109 0.04224,0.04315 0.06408,0.06408 0.02123,0.02067 0.04113,0.04253 0.06253,0.06304 0.02228,0.02171 0.04366,0.04409 0.06615,0.06563 0.02201,0.02144 0.04291,0.04383 0.06511,0.06511 0.02255,0.02197 0.04392,0.04486 0.06666,0.06666 0.02341,0.02283 0.04562,0.0466 0.06925,0.06925 0.0234,0.02281 0.04563,0.04662 0.06925,0.06924 0.02392,0.02332 0.04665,0.04767 0.0708,0.0708 0.02374,0.02316 0.04631,0.04731 0.07028,0.07028 0.02445,0.02386 0.04766,0.04869 0.07235,0.07235 0.02479,0.0242 0.04834,0.04938 0.07338,0.07338 0.02529,0.02469 0.0494,0.05046 0.07493,0.07493 0.026,0.0254 0.05072,0.05183 0.077,0.077 0.02547,0.02488 0.04972,0.05079 0.07545,0.07544 0.02635,0.02575 0.05141,0.05252 0.07803,0.07803 0.0267,0.02609 0.05209,0.05321 0.07907,0.07906 0.02704,0.02644 0.05277,0.05391 0.0801,0.0801 0.02739,0.02678 0.05345,0.0546 0.08113,0.08113 0.02782,0.02721 0.05455,0.05521 0.08268,0.08217 0.02869,0.02806 0.05574,0.05748 0.08475,0.08527 0.02798,0.02737 0.05491,0.05557 0.0832,0.08268 0.02947,0.02884 0.05752,0.05878 0.08733,0.08733 0.02867,0.02806 0.05575,0.05749 0.08475,0.08527 0.02946,0.02885 0.05753,0.05878 0.08733,0.08733 0.03006,0.02946 0.05898,0.05973 0.0894,0.08888 0.03041,0.0298 0.05914,0.06095 0.08992,0.09043 0.03066,0.03005 0.05991,0.06121 0.09095,0.09095 0.03101,0.0304 0.06059,0.06191 0.09199,0.09198 0.03135,0.03074 0.06128,0.06261 0.09302,0.09302 0.03183,0.03123 0.06233,0.06368 0.09457,0.09457 0.03213,0.03152 0.06306,0.06391 0.0956,0.09508 0.03252,0.03192 0.06369,0.06507 0.09664,0.09664 0.03316,0.03255 0.06459,0.06652 0.09818,0.0987 0.03367,0.03305 0.06614,0.06708 0.100254,0.09974 0.0328,0.03219 0.06392,0.06584 0.09715,0.09767 0.03433,0.03372 0.06752,0.06848 0.10232,0.101801 0.03478,0.03417 0.06809,0.0696 0.103354,0.103354 0.03374,0.03315 0.06605,0.06749 0.100251,0.100253 0.03505,0.03445 0.06833,0.07034 0.10387,0.104387 0.03544,0.03485 0.06948,0.07099 0.10542,0.105417 0.03565,0.03506 0.06978,0.07131 0.105937,0.10594 0.03612,0.03554 0.07084,0.07239 0.107487,0.107484 0.03643,0.03585 0.07156,0.07261 0.108521,0.108006 0.03685,0.03628 0.07216,0.07374 0.109554,0.109553 0.03728,0.03671 0.07275,0.07487 0.110588,0.111104 0.03754,0.03697 0.07352,0.07513 0.11162,0.111622 0.03788,0.03731 0.0742,0.07583 0.112654,0.112654 0.03883,0.03826 0.07632,0.07749 0.115755,0.11524 0.03821,0.03764 0.0749,0.07654 0.113689,0.113686 0.03943,0.03887 0.07726,0.07897 0.117305,0.117306 0.03889,0.03833 0.07626,0.07794 0.115756,0.115755 0.03968,0.03913 0.07751,0.07974 0.117821,0.11834 0.0402,0.03965 0.07905,0.08027 0.119891,0.119372 0.04045,0.03992 0.0793,0.08105 0.120407,0.120407 0.04079,0.04026 0.07998,0.08174 0.121438,0.121438 0.04113,0.04061 0.08066,0.08244 0.122473,0.122473 0.04156,0.04104 0.08126,0.08357 0.123507,0.124023 0.04185,0.04134 0.0825,0.08379 0.125058,0.124542 0.04233,0.04182 0.08304,0.08488 0.12609,0.12609 0.04253,0.04203 0.08335,0.08571 0.126606,0.127125 0.04293,0.04243 0.08449,0.08584 0.128159,0.12764 0.04387,0.04338 0.0861,0.08802 0.130741,0.130741 0.04368,0.04318 0.08578,0.08769 0.130225,0.130225 0.04402,0.04353 0.08646,0.08839 0.131258,0.131258 0.04392,0.04345 0.08604,0.08847 0.130741,0.131259 0.0448,0.04434 0.08823,0.08967 0.133842,0.133324 0.04506,0.04461 0.08848,0.09045 0.134358,0.134358 0.04552,0.04507 0.08956,0.09154 0.135908,0.135911 0.04643,0.04598 0.0912,0.09324 0.138494,0.138491 0.04555,0.0451 0.08953,0.09151 0.135908,0.135911 0.04659,0.04617 0.09155,0.09358 0.13901,0.13901 0.04693,0.04652 0.09223,0.09427 0.140044,0.140041 0.04727,0.04687 0.09291,0.09497 0.141076,0.141078 0.04761,0.04722 0.09359,0.09567 0.14211,0.142111 0.04795,0.04756 0.09427,0.09636 0.143145,0.143142 0.04841,0.04803 0.09535,0.09746 0.144693,0.144695 0.0488,0.04843 0.09597,0.0981 0.145729,0.145727 0.04897,0.04861 0.0963,0.09845 0.146244,0.146244 0.04948,0.04913 0.09733,0.0995 0.147793,0.147796 0.04977,0.04942 0.09806,0.100248 0.148828,0.148828 0.05008,0.04975 0.09877,0.100452 0.149863,0.149344 0.05059,0.05027 0.09928,0.102018 0.150894,0.15141 0.05084,0.05053 0.100047,0.102283 0.151929,0.15193 0.05118,0.05088 0.100727,0.102978 0.152964,0.152963 0.05163,0.05134 0.101806,0.104079 0.154511,0.154511 0.05186,0.05158 0.102087,0.104371 0.15503,0.15503 0.05288,0.05261 0.104119,0.106474 0.158129,0.158131 0.05217,0.05189 0.102798,0.105101 0.156064,0.156062 0.0529,0.05266 0.104614,0.106431 0.158647,0.158131 0.05329,0.05306 0.104717,0.107588 0.159163,0.159679 0.05372,0.0535 0.105828,0.108201 0.160713,0.160713 0.05406,0.05385 0.106508,0.108897 0.161748,0.161748 0.05449,0.05429 0.107611,0.109505 0.163298,0.162782 0.05482,0.05463 0.107775,0.110723 0.163814,0.16433 0.0551,0.05493 0.109037,0.110958 0.165364,0.164849 0.05549,0.05534 0.109138,0.112114 0.165881,0.166396 0.05585,0.05571 0.110313,0.112792 0.167431,0.167434 0.05686,0.05672 0.112361,0.114398 0.170535,0.170013 0.05589,0.05575 0.110275,0.11276 0.16743,0.167434 0.05678,0.05667 0.111927,0.114961 0.170016,0.170531 0.05729,0.0572 0.113459,0.115488 0.172083,0.171564 0.05823,0.05815 0.115059,0.117679 0.174664,0.174668 0.05732,0.05723 0.112914,0.11598 0.171567,0.172082 0.05725,0.0572 0.112982,0.115488 0.171566,0.171566 0.06148,0.0615 0.121465,0.124288 0.184484,0.184484 0.05641,0.05632 0.111278,0.113755 0.168981,0.168984 0.06199,0.06202 0.122489,0.125333 0.186037,0.186034 0.05811,0.05805 0.114665,0.117258 0.174148,0.174148 0.06091,0.06094 0.120518,0.122759 0.182936,0.18242 0.06045,0.06046 0.119446,0.122179 0.181385,0.181382 0.0601,0.06013 0.118777,0.121468 0.180351,0.180351 0.06115,0.06122 0.120779,0.123521 0.183451,0.183452 0.06156,0.06165 0.121375,0.124653 0.184483,0.185001 0.06192,0.06202 0.122555,0.125334 0.186037,0.186037 0.06224,0.06236 0.123248,0.125526 0.187068,0.186552 0.06259,0.06273 0.12391,0.12672 0.188103,0.188101 0.06283,0.06298 0.12418,0.127002 0.188619,0.188618 0.06419,0.06436 0.126884,0.12981 0.192752,0.192755 0.06365,0.06379 0.125904,0.128804 0.191203,0.191203 0.06398,0.06415 0.126582,0.129498 0.192236,0.192236 0.06364,0.06381 0.125918,0.128783 0.191204,0.191201 0.06468,0.06491 0.127918,0.130837 0.194302,0.194305 0.06587,0.06612 0.130283,0.133294 0.197921,0.197922 0.06464,0.06487 0.127956,0.130868 0.194302,0.194302 0.06576,0.06605 0.129874,0.13336 0.197406,0.197921 0.06618,0.06649 0.130982,0.133972 0.198954,0.198954 0.06551,0.06583 0.130143,0.13254 0.197403,0.196887 0.06937,0.06977 0.137437,0.140663 0.208774,0.208772 0.06457,0.06484 0.127508,0.1309 0.193786,0.194304 0.07012,0.07057 0.139227,0.141971 0.211358,0.210842 0.06713,0.06745 0.133077,0.136157 0.202054,0.202054 0.0674,0.06777 0.133313,0.136882 0.20257,0.203086 0.06861,0.06905 0.136165,0.138764 0.206706,0.20619 0.06878,0.06924 0.136501,0.139615 0.207224,0.207222 0.06936,0.06985 0.137435,0.140586 0.208772,0.208774 0.07055,0.07106 0.139798,0.143047 0.212389,0.212389 0.06916,0.06963 0.137139,0.14028 0.208256,0.208257 0.07029,0.07083 0.13956,0.142753 0.211874,0.211873 0.07147,0.07204 0.141922,0.145216 0.215492,0.215492 0.07033,0.07086 0.139515,0.142719 0.211873,0.211873 0.07052,0.07111 0.13983,0.143 0.212389,0.212389 0.07421,0.0749 0.147294,0.15077 0.223761,0.223758 0.981784,0.989388 2.159682,1.816442 3.512963,2.411225 l 0.03101,0.01395 c 5.785567,2.52231 12.520488,-0.120451 15.047143,-5.904031 1.976217,-4.523613 0.792935,-9.630029 -2.582789,-12.851413 -0.07209,-0.07263 -0.142817,-0.146209 -0.21704,-0.21704 -0.0709,-0.07141 -0.140462,-0.144267 -0.213424,-0.21394 -0.0723,-0.07285 -0.143629,-0.146516 -0.218075,-0.217559 -0.07109,-0.07156 -0.140776,-0.144121 -0.213939,-0.213939 -0.06982,-0.07026 -0.137993,-0.141745 -0.209807,-0.210325 -0.0713,-0.07179 -0.141589,-0.144426 -0.214974,-0.214456 -0.06984,-0.07024 -0.138488,-0.141764 -0.210322,-0.210325 -0.06976,-0.07015 -0.138057,-0.141335 -0.209807,-0.209804 -0.06848,-0.06885 -0.135273,-0.138962 -0.205674,-0.20619 -0.07057,-0.07097 -0.139782,-0.143139 -0.212389,-0.212391 -0.0678,-0.06808 -0.13445,-0.137108 -0.204123,-0.203605 -0.06825,-0.06856 -0.134998,-0.138197 -0.205155,-0.205156 -0.06792,-0.06821 -0.134319,-0.137501 -0.204121,-0.20412 -0.06758,-0.06786 -0.133641,-0.136808 -0.203089,-0.203089 -0.06725,-0.0675 -0.132958,-0.13611 -0.202054,-0.202054 -0.06597,-0.0662 -0.130175,-0.133734 -0.197922,-0.198438 -0.06643,-0.0667 -0.131749,-0.134295 -0.199988,-0.199472 -0.0679,-0.06815 -0.134339,-0.13756 -0.204121,-0.204121 -0.06486,-0.065 -0.128243,-0.13127 -0.19482,-0.19482 -0.0654,-0.06557 -0.129223,-0.132276 -0.196371,-0.196372 -0.0643,-0.06445 -0.127281,-0.130241 -0.19327,-0.19327 -0.06468,-0.06484 -0.127919,-0.130897 -0.194303,-0.194302 -0.06434,-0.0645 -0.127238,-0.130201 -0.19327,-0.19327 -0.06401,-0.06414 -0.126558,-0.129506 -0.192235,-0.192236 -0.0635,-0.06362 -0.125543,-0.128457 -0.190686,-0.190687 -0.06591,-0.06601 -0.130246,-0.133401 -0.197921,-0.197919 -0.06043,-0.06039 -0.118954,-0.122246 -0.180867,-0.181385 -0.06344,-0.06351 -0.125613,-0.128048 -0.190688,-0.19017 -0.06127,-0.06128 -0.120657,-0.123981 -0.183451,-0.183967 -0.06456,-0.0646 -0.127529,-0.130617 -0.193786,-0.193786 -0.0591,-0.059 -0.116737,-0.119449 -0.17725,-0.177253 -0.06107,-0.06106 -0.120867,-0.12315 -0.183451,-0.182933 -0.06082,-0.0608 -0.1201,-0.122885 -0.182417,-0.182419 -0.06022,-0.06019 -0.118661,-0.121923 -0.180351,-0.180867 -0.0628,-0.06276 -0.124216,-0.126695 -0.188621,-0.188103 -0.05731,-0.05715 -0.112919,-0.11554 -0.171564,-0.171563 -0.06016,-0.06008 -0.118727,-0.121513 -0.180351,-0.180351 -0.05902,-0.05889 -0.116308,-0.119041 -0.176733,-0.176734 -0.058,-0.05786 -0.114271,-0.11744 -0.173633,-0.174151 -0.05907,-0.05894 -0.116774,-0.118991 -0.17725,-0.176731 -0.058,-0.05784 -0.114268,-0.116954 -0.173633,-0.173636 -0.05767,-0.05748 -0.113588,-0.116255 -0.172601,-0.172598 -0.05655,-0.05636 -0.111135,-0.114236 -0.168981,-0.169497 -0.0566,-0.05642 -0.111604,-0.114178 -0.169497,-0.1695 -0.05927,-0.05908 -0.117081,-0.119378 -0.177769,-0.17725 -0.05454,-0.05424 -0.107045,-0.110077 -0.162779,-0.163298 -0.05582,-0.05558 -0.11035,-0.112406 -0.167434,-0.166915 -0.05547,-0.05521 -0.10917,-0.111728 -0.16588,-0.165881 -0.05401,-0.05374 -0.106043,-0.109003 -0.16123,-0.161747 -0.05654,-0.05629 -0.111151,-0.1143 -0.168984,-0.169498 -0.05434,-0.05402 -0.107241,-0.109251 -0.162779,-0.162263 -0.05409,-0.05376 -0.106474,-0.108988 -0.161748,-0.161748 -0.05488,-0.05452 -0.108238,-0.110321 -0.16433,-0.163814 -0.05097,-0.05059 -0.09992,-0.102751 -0.151929,-0.152448 -0.05366,-0.05334 -0.105894,-0.107841 -0.160713,-0.160194 -0.05199,-0.05163 -0.101957,-0.104839 -0.15503,-0.155546 -0.05298,-0.05264 -0.104532,-0.10645 -0.158647,-0.158131 -0.05191,-0.05154 -0.102031,-0.104415 -0.15503,-0.15503 -0.05045,-0.05007 -0.0989,-0.101693 -0.150379,-0.150895 -0.05291,-0.05254 -0.104095,-0.106545 -0.158128,-0.158131 -0.052,-0.05156 -0.102462,-0.104394 -0.155546,-0.155027 -0.04877,-0.0483 -0.09549,-0.09824 -0.145211,-0.14573 -0.04953,-0.0491 -0.09728,-0.09953 -0.147796,-0.147793 -0.05044,-0.05002 -0.09943,-0.101225 -0.150895,-0.150379 -0.04876,-0.04832 -0.0955,-0.09822 -0.145211,-0.145727 -0.04976,-0.04932 -0.09807,-0.09983 -0.148828,-0.148312 -0.04756,-0.04711 -0.09312,-0.09577 -0.141592,-0.142111 -0.05002,-0.04957 -0.09832,-0.100623 -0.149347,-0.149344 -0.04798,-0.04748 -0.09423,-0.09645 -0.143142,-0.143145 -0.04765,-0.04713 -0.09355,-0.09575 -0.14211,-0.14211 -0.04843,-0.0479 -0.09532,-0.09708 -0.144695,-0.144177 -0.0445,-0.04396 -0.08699,-0.08952 -0.132292,-0.132807 -0.04609,-0.0456 -0.09052,-0.09258 -0.137459,-0.137459 -0.04902,-0.04851 -0.09626,-0.09856 -0.146243,-0.146246 -0.04305,-0.04249 -0.08437,-0.08629 -0.128159,-0.128156 -0.04782,-0.0473 -0.09389,-0.09611 -0.142626,-0.142627 -0.04337,-0.04281 -0.08507,-0.08702 -0.129191,-0.12919 -0.04473,-0.0442 -0.08779,-0.08981 -0.133326,-0.133327 -0.04439,-0.04385 -0.08711,-0.08911 -0.132292,-0.132291 -0.04405,-0.0435 -0.08643,-0.08842 -0.131257,-0.131257 -0.04302,-0.04247 -0.0844,-0.08631 -0.128156,-0.128159 -0.04613,-0.04555 -0.09048,-0.09263 -0.137462,-0.137459 -0.04135,-0.04074 -0.08096,-0.08283 -0.122989,-0.122989 -0.0425,-0.04191 -0.08339,-0.08532 -0.126608,-0.126609 -0.04108,-0.0405 -0.0802,-0.08255 -0.121955,-0.122473 -0.04355,-0.04296 -0.0854,-0.08739 -0.129709,-0.129706 -0.04228,-0.04165 -0.08309,-0.08453 -0.12609,-0.125574 -0.03996,-0.03933 -0.07826,-0.08007 -0.118856,-0.118856 -0.03949,-0.03889 -0.0772,-0.07946 -0.117306,-0.117824 -0.04331,-0.04268 -0.08513,-0.08663 -0.12919,-0.128673 -0.03792,-0.03728 -0.07416,-0.07586 -0.112655,-0.112657 -0.039,-0.03839 -0.07615,-0.07839 -0.115755,-0.116271 -0.04177,-0.04113 -0.08207,-0.08348 -0.124539,-0.124023 -0.03773,-0.03708 -0.07384,-0.07554 -0.112139,-0.112139 -0.0374,-0.03678 -0.07315,-0.0748 -0.111104,-0.111103 -0.04083,-0.04018 -0.07995,-0.08183 -0.121441,-0.121439 -0.03618,-0.03553 -0.07078,-0.0724 -0.107487,-0.107487 -0.03677,-0.03615 -0.07172,-0.07387 -0.109037,-0.109553 -0.03876,-0.03811 -0.07588,-0.07764 -0.115237,-0.115239 -0.03818,-0.03749 -0.07493,-0.07618 -0.113688,-0.113173 -0.03432,-0.03365 -0.06702,-0.06855 -0.101804,-0.101801 -0.03653,-0.03587 -0.07146,-0.0731 -0.108519,-0.108522 -0.03448,-0.03384 -0.06736,-0.06888 -0.10232,-0.10232 -0.03792,-0.03723 -0.07416,-0.0759 -0.112654,-0.112654 -0.03335,-0.03268 -0.06491,-0.06692 -0.0987,-0.09922 -0.03507,-0.0344 -0.06883,-0.06988 -0.104386,-0.10387 -0.03388,-0.03321 -0.06591,-0.06794 -0.100253,-0.100769 -0.03386,-0.0332 -0.06645,-0.06744 -0.100769,-0.100251 -0.03274,-0.03209 -0.06398,-0.06542 -0.09715,-0.09715 -0.0362,-0.0355 -0.07076,-0.07243 -0.107484,-0.107487 -0.0307,-0.03003 -0.05987,-0.06124 -0.09095,-0.09095 -0.03292,-0.03225 -0.06431,-0.06579 -0.09767,-0.09767 -0.03078,-0.03013 -0.05979,-0.06166 -0.09095,-0.09147 -0.03344,-0.03276 -0.06533,-0.06684 -0.09922,-0.09922 -0.03242,-0.03171 -0.06328,-0.06477 -0.09612,-0.09612 -0.02974,-0.02906 -0.05828,-0.05909 -0.08836,-0.08785 -0.02902,-0.02837 -0.05695,-0.05873 -0.0863,-0.08682 -0.03337,-0.03265 -0.06541,-0.06642 -0.09922,-0.0987 -0.02785,-0.02718 -0.05401,-0.05576 -0.08217,-0.08268 -0.02843,-0.02779 -0.056,-0.05723 -0.08475,-0.08475 -0.03199,-0.03128 -0.06269,-0.06363 -0.09509,-0.09457 -0.02741,-0.02674 -0.05343,-0.05465 -0.08113,-0.08113 -0.02698,-0.02634 -0.05283,-0.05452 -0.0801,-0.08062 -0.02983,-0.02914 -0.05819,-0.05953 -0.08837,-0.08836 -0.02775,-0.02708 -0.0541,-0.05535 -0.08216,-0.08217 -0.02741,-0.02673 -0.05343,-0.05465 -0.08113,-0.08113 -0.02837,-0.02766 -0.05554,-0.05632 -0.08423,-0.08372 -0.02456,-0.02392 -0.04754,-0.04915 -0.07235,-0.07286 -0.02532,-0.02469 -0.04936,-0.05045 -0.07493,-0.07493 -0.02906,-0.02835 -0.0569,-0.05772 -0.0863,-0.08578 -0.02248,-0.02188 -0.04346,-0.04496 -0.06615,-0.06666 -0.02802,-0.02732 -0.05486,-0.05562 -0.0832,-0.08268 -0.02308,-0.02245 -0.04492,-0.04594 -0.06821,-0.06821 -0.02447,-0.02382 -0.04765,-0.04872 -0.07235,-0.07235 -0.02412,-0.02348 -0.04696,-0.04803 -0.07131,-0.07132 -0.02281,-0.0222 -0.04416,-0.04567 -0.06718,-0.06769 -0.02482,-0.02416 -0.04832,-0.04943 -0.07338,-0.07338 -0.0243,-0.02363 -0.0473,-0.0484 -0.07183,-0.07183 -0.01995,-0.01938 -0.0388,-0.03967 -0.05891,-0.05891 -0.025,-0.02432 -0.04866,-0.04979 -0.0739,-0.0739 -0.02039,-0.01979 -0.03991,-0.04029 -0.06046,-0.05994 -0.02154,-0.02092 -0.04185,-0.0428 -0.06356,-0.06356 -0.02005,-0.01948 -0.0387,-0.04009 -0.05891,-0.05943 -0.02222,-0.02159 -0.04322,-0.0442 -0.06563,-0.06563 -0.02179,-0.02115 -0.04313,-0.0436 -0.06511,-0.0646 -0.0047,-0.0046 -0.0092,-0.0094 -0.01395,-0.01395 -0.0016,-0.0015 -0.0031,-0.0031 -0.0047,-0.0047 -0.01081,-0.01073 -0.02118,-0.02186 -0.03204,-0.03256 -7.94e-4,-7.6e-4 -0.0018,-0.0013 -0.0026,-0.0021 -0.019,-0.01844 -0.03667,-0.03801 -0.05581,-0.05633 -0.02214,-0.02149 -0.0433,-0.04379 -0.06563,-0.06511 -0.01622,-0.01571 -0.03121,-0.03243 -0.04754,-0.04806 -0.02118,-0.02055 -0.04117,-0.04213 -0.06253,-0.06253 -0.01674,-0.01621 -0.03276,-0.03298 -0.04961,-0.04909 -0.01788,-0.01733 -0.0347,-0.03549 -0.05271,-0.05271 -0.01744,-0.0169 -0.0336,-0.03488 -0.05116,-0.05168 -0.01718,-0.01664 -0.03335,-0.0341 -0.05064,-0.05064 -0.01666,-0.01613 -0.03232,-0.03306 -0.04909,-0.04909 -0.01578,-0.01527 -0.03063,-0.03132 -0.04651,-0.04651 -0.01866,-0.01807 -0.03649,-0.03682 -0.05529,-0.05478 -5.27e-4,-5.08e-4 -10e-4,-10e-4 -0.0016,-0.0015 -0.0124,-0.01225 -0.02423,-0.02501 -0.03669,-0.03721 -0.0177,-0.01713 -0.03437,-0.03517 -0.05219,-0.05219 -0.01343,-0.01297 -0.02629,-0.02636 -0.03979,-0.03927 -0.01238,-0.01197 -0.02374,-0.02478 -0.03617,-0.03669 -0.0014,-0.0014 -0.0027,-0.0028 -0.0041,-0.0041 -0.01517,-0.01467 -0.02919,-0.03037 -0.04444,-0.04496 -0.01544,-0.01492 -0.03046,-0.03012 -0.04599,-0.04496 -0.0046,-0.0044 -0.0089,-0.009 -0.01344,-0.01344 -0.0021,-0.002 -0.0041,-0.0042 -0.0062,-0.0062 -0.0021,-0.002 -0.0041,-0.0042 -0.0062,-0.0062 -0.0022,-0.0021 -0.004,-0.0046 -0.0062,-0.0067 -7.01e-4,-6.71e-4 -0.0014,-0.0014 -0.0021,-0.0021 -0.01299,-0.01255 -0.02518,-0.02575 -0.03824,-0.03824 -0.01229,-0.01187 -0.02383,-0.02436 -0.03617,-0.03617 -0.01465,-0.01415 -0.02867,-0.02881 -0.04341,-0.04289 0,0 -5.16e-4,-5.17e-4 -5.16e-4,-5.17e-4 -0.0046,-0.0045 -0.0088,-0.0094 -0.01344,-0.01395 0,0 -5.16e-4,-5.17e-4 -5.16e-4,-5.17e-4 -0.0047,-0.0046 -0.0092,-0.0094 -0.01395,-0.01395 -0.02499,-0.02432 -0.04866,-0.04978 -0.0739,-0.0739 -0.0091,-0.0087 -0.01829,-0.01816 -0.02739,-0.02687 -0.0051,-0.0049 -0.0099,-0.01008 -0.01499,-0.01499 0,0 -5.16e-4,-5.17e-4 -5.16e-4,-5.17e-4 -0.0018,-0.0018 -0.0034,-0.0039 -0.0052,-0.0057 -0.003,-0.0029 -0.0058,-0.0059 -0.0088,-0.0088 -3.52e-4,-3.36e-4 -6.83e-4,-6.98e-4 -10e-4,-0.001 -0.0098,-0.0095 -0.01906,-0.01949 -0.02894,-0.02894 -0.0043,-0.0042 -0.0081,-0.0088 -0.0124,-0.01292 -0.0054,-0.0053 -0.01057,-0.01077 -0.01602,-0.01602 -6.16e-4,-5.92e-4 -0.0014,-9.59e-4 -0.0021,-0.0016 0,0 -5.16e-4,-5.16e-4 -5.16e-4,-5.16e-4 -0.0086,-0.0084 -0.01665,-0.01743 -0.02532,-0.02584 -0.0022,-0.0021 -0.0045,-0.0041 -0.0067,-0.0062 -0.0069,-0.0066 -0.01327,-0.01357 -0.02015,-0.02015 -0.01089,-0.01049 -0.0211,-0.02159 -0.03204,-0.03204 -0.0062,-0.0059 -0.01191,-0.01218 -0.01809,-0.01809 -0.01262,-0.01222 -0.02452,-0.02504 -0.03721,-0.03721 -0.0012,-0.0012 -0.0024,-0.0024 -0.0036,-0.0036 -3.49e-4,-3.39e-4 -6.82e-4,-6.95e-4 -0.001,-10e-4 -0.0013,-0.0013 -0.0023,-0.0029 -0.0036,-0.0041 -5.24e-4,-5.04e-4 -10e-4,-0.001 -0.0015,-0.0016 -0.0071,-0.0069 -0.01404,-0.01383 -0.02119,-0.02067 -0.0044,-0.0042 -0.0085,-0.0087 -0.01292,-0.01292 0,0 0,-5.17e-4 0,-5.17e-4 -0.0019,-0.0019 -0.0038,-0.0038 -0.0057,-0.0057 -4.42e-4,-4.24e-4 -0.0011,-6.1e-4 -0.0016,-0.001 -0.0011,-0.001 -0.002,-0.0021 -0.0031,-0.0031 -0.005,-0.0048 -0.0095,-0.01015 -0.01447,-0.01499 -0.002,-0.0019 -0.0042,-0.0038 -0.0062,-0.0057 -0.0041,-0.0039 -0.0083,-0.0085 -0.0124,-0.0124 -0.0055,-0.0052 -0.01055,-0.01079 -0.01602,-0.01602 0,0 -5.16e-4,-5.16e-4 -5.16e-4,-5.16e-4 -0.0019,-0.0019 -0.0037,-0.0038 -0.0057,-0.0057 -8.76e-4,-8.48e-4 -0.0017,-0.0017 -0.0026,-0.0026 -1.74e-4,-1.69e-4 -8.6e-4,-8.63e-4 -0.001,-0.001 -0.0022,-0.0021 -0.004,-0.0046 -0.0062,-0.0067 -4.44e-4,-4.27e-4 -0.0011,-6.07e-4 -0.0016,-0.001 -0.0016,-0.0015 -0.0031,-0.0031 -0.0046,-0.0046 -0.003,-0.0029 -0.0063,-0.0064 -0.0093,-0.0093 -0.0044,-0.0042 -0.0085,-0.0087 -0.01292,-0.01292 -3.51e-4,-3.37e-4 -6.82e-4,-6.97e-4 -10e-4,-0.001 0,0 -5.16e-4,-5.17e-4 -5.16e-4,-5.17e-4 -6.11e-4,-5.96e-4 -9.39e-4,-0.0015 -0.0016,-0.0021 -0.0012,-0.0012 -0.0024,-0.0024 -0.0036,-0.0036 -0.0012,-0.0012 -0.0024,-0.0024 -0.0036,-0.0036 -7.04e-4,-6.77e-4 -0.0014,-0.0014 -0.0021,-0.0021 0,0 -5.18e-4,0 -5.18e-4,0 0,0 -5.16e-4,-5.16e-4 -5.16e-4,-5.16e-4 -0.0012,-0.0012 -0.0024,-0.0024 -0.0036,-0.0036 -3.49e-4,-3.36e-4 -6.85e-4,-6.97e-4 -0.001,-10e-4 0,0 -5.16e-4,-5.17e-4 -5.16e-4,-5.17e-4 -4.4e-4,-4.25e-4 -5.96e-4,-0.0011 -10e-4,-0.0015 -8.78e-4,-8.47e-4 -0.0017,-0.0017 -0.0026,-0.0026 -5.29e-4,-5.07e-4 -0.001,-0.001 -0.0016,-0.0015 0,0 -5.18e-4,-5.17e-4 -5.18e-4,-5.17e-4 -0.0033,-0.0032 -0.007,-0.0071 -0.01033,-0.01033 -0.003,-0.0029 -0.0063,-0.0064 -0.0093,-0.0093 -0.0045,-0.0043 -0.0089,-0.0086 -0.01344,-0.01292 -5.27e-4,-5.04e-4 -0.001,-10e-4 -0.0016,-0.0016 -0.0018,-0.0018 -0.0033,-0.0039 -0.0052,-0.0057 0,0 -5.16e-4,-5.17e-4 -5.16e-4,-5.17e-4 -0.0017,-0.0016 -0.0035,-0.0031 -0.0052,-0.0047 -0.0023,-0.0022 -0.0044,-0.0045 -0.0067,-0.0067 -5.26e-4,-5.04e-4 -0.001,-0.001 -0.0016,-0.0016 -0.133096,-0.12737 -0.269918,-0.251756 -0.409795,-0.373104 -0.141631,-0.12287 -0.286655,-0.242252 -0.435115,-0.358634 -0.0011,-8.25e-4 -0.002,-0.0018 -0.0031,-0.0026 -5.66e-4,-4.44e-4 -9.82e-4,-0.0011 -0.0016,-0.0015 C 60.909865,24.619796 60.758526,24.50769 60.604014,24.398651 59.983,23.960399 59.30895,23.577403 58.585532,23.260735 57.140081,22.628008 55.635126,22.317843 54.15066,22.299037 Z"
       id="path2987"
       inkscape:connector-curvature="0" />
    <path
       clip-path="url(#clipPath19804)"
       style="opacity:0.3;fill:#000000;fill-opacity:1;stroke:none;stroke-width:5.00004816;stroke-linecap:round;stroke-linejoin:round;stroke-miterlimit:4;stroke-dasharray:none;stroke-opacity:1;paint-order:fill markers stroke;filter:url(#filter4223)"
       id="path4087"
       transform="matrix(-0.40237677,0.91547416,-0.91547987,-0.40236378,0,-189)"
       sodipodi:type="arc"
       sodipodi:cx="182.18105"
       sodipodi:cy="-139.05869"
       sodipodi:rx="11.433815"
       sodipodi:ry="11.433965"
       sodipodi:start="0"
       sodipodi:end="6.2802095"
       d="m 193.61486,-139.05869 a 11.433815,11.433965 0 0 1 -11.42531,11.43397 11.433815,11.433965 0 0 1 -11.44231,-11.41695 11.433815,11.433965 0 0 1 11.40829,-11.45095 11.433815,11.433965 0 0 1 11.45928,11.39991"
       sodipodi:open="true" />
    <path
       clip-path="url(#clipPath19800)"
       sodipodi:open="true"
       d="M 20.589166,-63.009476 A 11.433815,11.433965 0 0 1 9.1638569,-51.575514 11.433815,11.433965 0 0 1 -2.2784517,-62.992463 11.433815,11.433965 0 0 1 9.1298321,-74.443412 11.433815,11.433965 0 0 1 20.589115,-63.043501"
       sodipodi:end="6.2802095"
       sodipodi:start="0"
       sodipodi:ry="11.433965"
       sodipodi:rx="11.433815"
       sodipodi:cy="-63.009476"
       sodipodi:cx="9.1553507"
       sodipodi:type="arc"
       transform="matrix(-0.40237677,0.91547416,-0.91547987,-0.40236378,-3.6666667e-8,0)"
       id="path1398-1"
       style="opacity:0.98000004;fill:#ffffff;fill-opacity:1;stroke:none;stroke-width:5.00004816;stroke-linecap:round;stroke-linejoin:round;stroke-miterlimit:4;stroke-dasharray:none;stroke-opacity:1;paint-order:fill markers stroke" />
  </g>
</svg>
