<?xml version="1.0" encoding="UTF-8" standalone="no"?>
<svg
   xmlns:svg="http://www.w3.org/2000/svg"
   xmlns="http://www.w3.org/2000/svg"
   height="31.812939"
   width="32.700001"
   xml:space="preserve"
   viewBox="0 0 32.700001 31.812939"
   y="0px"
   x="0px"
   id="Layer_1"
   version="1.1"><style
     type="text/css">
	.st0{fill-rule:evenodd;clip-rule:evenodd;fill:#72BF48;}
	.st1{fill-rule:evenodd;clip-rule:evenodd;fill:#FFFFFF;}
	.st2{fill:#FFFFFF;}
</style><path
     style="clip-rule:evenodd;fill:#72bf48;fill-rule:evenodd"
     id="path43"
     d="M 16.3,0 C 7.3,0 0,7.3 0,16.3 c 0,7.2 4.7,13.3 11.1,15.5 0.8,0.1 1.1,-0.4 1.1,-0.8 0,-0.4 0,-1.4 0,-2.8 C 7.7,29.2 6.7,26 6.7,26 6,24.1 4.9,23.6 4.9,23.6 c -1.5,-1 0.1,-1 0.1,-1 1.6,0.1 2.5,1.7 2.5,1.7 1.5,2.5 3.8,1.8 4.7,1.4 0.1,-1.1 0.6,-1.8 1,-2.2 C 9.6,23.1 5.8,21.7 5.8,15.4 5.8,13.6 6.4,12.2 7.5,11 7.3,10.6 6.8,8.9 7.7,6.7 c 0,0 1.4,-0.4 4.5,1.7 1.3,-0.4 2.7,-0.5 4.1,-0.5 1.4,0 2.8,0.2 4.1,0.5 3.1,-2.1 4.5,-1.7 4.5,-1.7 0.9,2.2 0.3,3.9 0.2,4.3 1,1.1 1.7,2.6 1.7,4.4 0,6.3 -3.8,7.6 -7.4,8 0.6,0.5 1.1,1.5 1.1,3 0,2.2 0,3.9 0,4.5 0,0.4 0.3,0.9 1.1,0.8 C 28.1,29.5 32.7,23.4 32.7,16.2 32.6,7.3 25.3,0 16.3,0 Z"
     class="st0" /><path
     style="clip-rule:evenodd;fill:#ffffff;fill-rule:evenodd"
     id="path45"
     d="m 16.3,276 c -9,0 -16.3,7.3 -16.3,16.3 0,7.2 4.7,13.3 11.1,15.5 0.8,0.1 1.1,-0.4 1.1,-0.8 0,-0.4 0,-1.4 0,-2.8 -4.5,1 -5.5,-2.2 -5.5,-2.2 -0.7,-1.9 -1.8,-2.4 -1.8,-2.4 -1.5,-1 0.1,-1 0.1,-1 1.6,0.1 2.5,1.7 2.5,1.7 1.5,2.5 3.8,1.8 4.7,1.4 0.1,-1.1 0.6,-1.8 1,-2.2 -3.6,-0.4 -7.4,-1.8 -7.4,-8.1 0,-1.8 0.6,-3.2 1.7,-4.4 -0.2,-0.4 -0.7,-2.1 0.2,-4.3 0,0 1.4,-0.4 4.5,1.7 1.3,-0.4 2.7,-0.5 4.1,-0.5 1.4,0 2.8,0.2 4.1,0.5 3.1,-2.1 4.5,-1.7 4.5,-1.7 0.9,2.2 0.3,3.9 0.2,4.3 1,1.1 1.7,2.6 1.7,4.4 0,6.3 -3.8,7.6 -7.4,8 0.6,0.5 1.1,1.5 1.1,3 0,2.2 0,3.9 0,4.5 0,0.4 0.3,0.9 1.1,0.8 6.5,-2.2 11.1,-8.3 11.1,-15.5 C 32.6,283.3 25.3,276 16.3,276 Z"
     class="st1" /><g
     transform="translate(-136.3,-107.4)"
     id="g63"><path
       style="clip-rule:evenodd;fill:#ffffff;fill-rule:evenodd"
       id="path47"
       d="m 350.6,334.4 c -33.3,0 -60.4,27 -60.4,60.4 0,26.7 17.3,49.3 41.3,57.3 3,0.6 4.1,-1.3 4.1,-2.9 0,-1.4 -0.1,-6.2 -0.1,-11.2 -16.8,3.7 -20.3,-7.1 -20.3,-7.1 -2.7,-7 -6.7,-8.8 -6.7,-8.8 -5.5,-3.7 0.4,-3.7 0.4,-3.7 6.1,0.4 9.3,6.2 9.3,6.2 5.4,9.2 14.1,6.6 17.6,5 0.5,-3.9 2.1,-6.6 3.8,-8.1 -13.4,-1.5 -27.5,-6.7 -27.5,-29.8 0,-6.6 2.4,-12 6.2,-16.2 -0.6,-1.5 -2.7,-7.7 0.6,-16 0,0 5.1,-1.6 16.6,6.2 4.8,-1.3 10,-2 15.1,-2 5.1,0 10.3,0.7 15.1,2 11.5,-7.8 16.6,-6.2 16.6,-6.2 3.3,8.3 1.2,14.5 0.6,16 3.9,4.2 6.2,9.6 6.2,16.2 0,23.2 -14.1,28.3 -27.6,29.8 2.2,1.9 4.1,5.5 4.1,11.2 0,8.1 -0.1,14.6 -0.1,16.6 0,1.6 1.1,3.5 4.1,2.9 24,-8 41.3,-30.6 41.3,-57.3 0.1,-33.4 -26.9,-60.5 -60.3,-60.5 z"
       class="st1" /><path
       style="fill:#ffffff"
       id="path49"
       d="m 313.1,421.1 c -0.1,0.3 -0.6,0.4 -1,0.2 -0.4,-0.2 -0.7,-0.6 -0.5,-0.9 0.1,-0.3 0.6,-0.4 1,-0.2 0.4,0.2 0.6,0.6 0.5,0.9 z m -0.8,-0.5"
       class="st2" /><path
       style="fill:#ffffff"
       id="path51"
       d="m 315.5,423.9 c -0.3,0.3 -0.9,0.1 -1.2,-0.3 -0.4,-0.4 -0.5,-1 -0.2,-1.3 0.3,-0.3 0.8,-0.1 1.2,0.3 0.5,0.4 0.5,1 0.2,1.3 z m -0.5,-0.7"
       class="st2" /><path
       style="fill:#ffffff"
       id="path53"
       d="m 317.9,427.3 c -0.4,0.3 -1,0 -1.3,-0.5 -0.4,-0.5 -0.4,-1.2 0,-1.4 0.4,-0.3 1,0 1.3,0.5 0.4,0.5 0.4,1.2 0,1.4 z m 0,0"
       class="st2" /><path
       style="fill:#ffffff"
       id="path55"
       d="m 321.2,430.7 c -0.3,0.4 -1,0.3 -1.6,-0.2 -0.5,-0.5 -0.7,-1.2 -0.3,-1.5 0.3,-0.4 1,-0.3 1.6,0.2 0.5,0.4 0.6,1.1 0.3,1.5 z m 0,0"
       class="st2" /><path
       style="fill:#ffffff"
       id="path57"
       d="m 325.7,432.7 c -0.1,0.5 -0.8,0.7 -1.5,0.5 -0.7,-0.2 -1.1,-0.8 -1,-1.2 0.1,-0.5 0.8,-0.7 1.5,-0.5 0.7,0.1 1.1,0.7 1,1.2 z m 0,0"
       class="st2" /><path
       style="fill:#ffffff"
       id="path59"
       d="m 330.6,433 c 0,0.5 -0.6,0.9 -1.3,0.9 -0.7,0 -1.3,-0.4 -1.3,-0.9 0,-0.5 0.6,-0.9 1.3,-0.9 0.7,0 1.3,0.4 1.3,0.9 z m 0,0"
       class="st2" /><path
       style="fill:#ffffff"
       id="path61"
       d="m 335.2,432.2 c 0.1,0.5 -0.4,1 -1.1,1.1 -0.7,0.1 -1.3,-0.2 -1.4,-0.7 -0.1,-0.5 0.4,-1 1.1,-1.1 0.7,-0.1 1.3,0.2 1.4,0.7 z m 0,0"
       class="st2" /></g></svg>
