<?xml version="1.0" encoding="UTF-8" standalone="no"?>
<svg
   xmlns:dc="http://purl.org/dc/elements/1.1/"
   xmlns:cc="http://creativecommons.org/ns#"
   xmlns:rdf="http://www.w3.org/1999/02/22-rdf-syntax-ns#"
   xmlns:svg="http://www.w3.org/2000/svg"
   xmlns="http://www.w3.org/2000/svg"
   version="1.1"
   id="Layer_1"
   x="0px"
   y="0px"
   viewBox="0 0 32.700001 31.812939"
   xml:space="preserve"
   width="32.700001"
   height="31.812939"><metadata
     id="metadata28"><rdf:RDF><cc:Work
         rdf:about=""><dc:format>image/svg+xml</dc:format><dc:type
           rdf:resource="http://purl.org/dc/dcmitype/StillImage" /><dc:title></dc:title></cc:Work></rdf:RDF></metadata><defs
     id="defs26" /><style
     id="style20"
     type="text/css">
	.st0{fill-rule:evenodd;clip-rule:evenodd;fill:#191717;}
</style><path
     class="st0"
     d="M 16.3,0 C 7.3,0 0,7.3 0,16.3 c 0,7.2 4.7,13.3 11.1,15.5 0.8,0.1 1.1,-0.4 1.1,-0.8 0,-0.4 0,-1.4 0,-2.8 C 7.7,29.2 6.7,26 6.7,26 6,24.1 4.9,23.6 4.9,23.6 c -1.5,-1 0.1,-1 0.1,-1 1.6,0.1 2.5,1.7 2.5,1.7 1.5,2.5 3.8,1.8 4.7,1.4 0.1,-1.1 0.6,-1.8 1,-2.2 C 9.6,23.1 5.8,21.7 5.8,15.4 5.8,13.6 6.4,12.2 7.5,11 7.3,10.6 6.8,8.9 7.7,6.7 c 0,0 1.4,-0.4 4.5,1.7 1.3,-0.4 2.7,-0.5 4.1,-0.5 1.4,0 2.8,0.2 4.1,0.5 3.1,-2.1 4.5,-1.7 4.5,-1.7 0.9,2.2 0.3,3.9 0.2,4.3 1,1.1 1.7,2.6 1.7,4.4 0,6.3 -3.8,7.6 -7.4,8 0.6,0.5 1.1,1.5 1.1,3 0,2.2 0,3.9 0,4.5 0,0.4 0.3,0.9 1.1,0.8 C 28.1,29.5 32.7,23.4 32.7,16.2 32.6,7.3 25.3,0 16.3,0 Z"
     id="path23"
     style="clip-rule:evenodd;fill:#191717;fill-rule:evenodd" /></svg>