<?xml version="1.0" encoding="utf-8"?>
<!-- Generator: Adobe Illustrator 16.0.0, SVG Export Plug-In . SVG Version: 6.00 Build 0)  -->
<!DOCTYPE svg PUBLIC "-//W3C//DTD SVG 1.1//EN" "http://www.w3.org/Graphics/SVG/1.1/DTD/svg11.dtd">
<svg version="1.1" xmlns="http://www.w3.org/2000/svg" xmlns:xlink="http://www.w3.org/1999/xlink" x="0px" y="0px" width="574px"
	 height="413px" viewBox="917.5 -21.5 574 413" enable-background="new 917.5 -21.5 574 413" xml:space="preserve">
<g id="dragon" display="none">
	<g transform="matrix(10.7593,-1.3312e-30,1.82424e-30,10.7593,-1474.88,-1301.93)" display="inline">
		<path id="dragon-matrix" fill="#54B527" d="M245.095,130.114c-0.118,0.344-0.413,0.555-0.658,0.471
			c-0.245-0.084-0.348-0.431-0.23-0.776c0.134-0.39,0.434-0.548,0.658-0.471C245.11,129.422,245.213,129.769,245.095,130.114
			 M243.968,130.031c-0.118,0.344-0.413,0.555-0.658,0.471c-0.245-0.084-0.348-0.431-0.23-0.776
			c0.118-0.344,0.412-0.555,0.658-0.471C243.983,129.339,244.086,129.687,243.968,130.031 M262.314,143.267
			c0,0-0.592,0.155-0.886,0.24c-0.096,0.028-0.167,0.016-0.247-0.051c-0.222-0.187-0.911-0.592-0.911-0.592
			s-0.887,0.254-1.333,0.369c-0.077,0.02-0.181,0.005-0.252-0.032c-0.469-0.25-1.637-0.789-1.637-0.789s-0.761,0.227-1.144,0.332
			c-0.064,0.018-0.159,0.003-0.213-0.036c-0.193-0.137-0.812-0.601-0.812-0.601s-0.862,0.082-1.147,0.124
			c0.109-0.206,0.202-0.381,0.294-0.555c0.123-0.232,0.122-0.232-0.088-0.398c-0.208-0.165-0.416-0.332-0.628-0.502
			c0.412-0.541,0.81-1.065,1.212-1.593c-0.369-0.345-0.725-0.677-1.089-1.017c0.442-0.485,0.875-0.96,1.311-1.438
			c-0.043-0.054-0.077-0.096-0.111-0.137c-0.38-0.46-0.758-0.921-1.143-1.377c-0.066-0.078-0.07-0.126-0.001-0.201
			c0.189-0.206,0.37-0.419,0.553-0.629c0.282-0.323,0.564-0.646,0.852-0.977c-0.518-0.493-1.026-0.977-1.537-1.462
			c0.524-0.699,1.041-1.388,1.561-2.081c-0.64-0.451-1.261-0.889-1.885-1.329c0.366-0.765,0.724-1.513,1.09-2.28
			c-0.813-0.068-1.603-0.134-2.407-0.2c-0.161-0.705-0.322-1.408-0.486-2.128c-0.623,0.412-1.225,0.811-1.835,1.215
			c-0.41-0.597-0.81-1.178-1.217-1.77c-0.511,0.56-1.006,1.103-1.514,1.658c-0.502-0.617-0.997-1.224-1.513-1.858
			c-0.3,0.806-0.592,1.588-0.868,2.329c-0.337-0.003-0.65-0.042-0.952,0c-0.655,0.09-1.174,0.453-1.626,0.915
			c-0.602,0.615-1.034,1.344-1.373,2.127c-0.584,1.346-1.03,2.741-1.42,4.154c-0.175,0.632-0.308,1.272-0.265,1.935
			c0.037,0.579,0.264,1.056,0.79,1.336c0.258,0.137,0.542,0.229,0.822,0.317c0.212,0.067,0.437,0.096,0.667,0.144
			c0,0.048,2.822,0.198,4.723-0.078c0.986-0.143,1.858-1.16,1.857-1.138c0,0.035-0.713,1.19-1.633,1.379
			c-1.903,0.391-4.95,0.214-4.951,0.286c-0.013,0.859-0.026,1.791-0.038,2.65c-0.008,0.623-0.016,1.246-0.018,1.87
			c0,0.093-0.034,0.139-0.111,0.189c-0.535,0.349-1.069,0.699-1.596,1.06c-0.422,0.29-0.694,0.681-0.755,1.202
			c-0.057,0.485,0.133,1.001,0.778,1.04c0.417,0.025,0.838,0.01,1.257-0.004c0.27-0.009,0.54-0.047,0.811-0.072
			c-0.035,0.618,0.246,0.919,0.864,0.921c0.187,0,0.377-0.013,0.561-0.047c0.917-0.169,1.772-0.517,2.582-0.965
			c0.276-0.152,0.551-0.228,0.852-0.245c1.109-0.064,2.218-0.137,3.329-0.18c1.073-0.041,2.148-0.06,3.222-0.067
			c1.177-0.008,2.354-0.006,3.531,0.018c1.396,0.029,2.791,0.064,4.185,0.136c1.04,0.054,3.114,0.262,3.114,0.262L262.314,143.267z"
			/>
	</g>
	<g display="inline">
		<path fill="#54B527" d="M1007.667,285.333h-17l-34.5,79h18.5l8-16.5h32.5l8,16.5h18.5L1007.667,285.333z M989.167,331.5l10.167-22
			l10.167,22H989.167z"/>
		<path fill="#54B527" d="M1108.5,307.5l9-13.334c0,0-10.334-11-31.667-11s-39,20-39,41.667s11.334,40.667,43.334,40.667
			c25.583,0,30.666-13.667,30.666-13.667l0.003-27h-17.67v21c0,0-5.999,2.667-14.666,2.667s-23.668-6.001-23.334-23.667
			c0.333-17.667,13-25.333,22.333-25.333C1100.917,299.5,1108.5,307.5,1108.5,307.5z"/>
		<polygon fill="#54B527" points="1154.167,285.333 1136.667,285.333 1136.667,364.333 1154.167,364.333 1154.167,333.833 
			1185.917,333.833 1185.917,364.333 1204.166,364.333 1204.166,285.333 1186.167,285.333 1186.167,318.583 1154.417,318.583 		"/>
		<path fill="#54B527" d="M1249.416,302.333c-20.248,0-28.25,8.75-28.25,8.75l7.5,10.5c0,0,10.002-5.897,17.25-5.75
			c12.25,0.25,10.5,10.25,10.5,10.25h-21.75c0,0-16.25,1.75-16.25,20c0,16.25,16.168,19.083,22.918,19.083
			c11.5,0,16.332-7.583,16.332-7.583v6.75h15.75v-42.75C1273.416,321.583,1272.916,302.333,1249.416,302.333z M1243.916,352.083
			c-3.109,0.018-8.248-1.08-8.25-7c0-7.5,10.25-6.75,10.25-6.75l11.084-0.021C1257,338.313,1257.834,352.003,1243.916,352.083z"/>
		<path fill="#54B527" d="M1334.666,324.333l8.334-11.166c0,0-10.002-10.834-24.668-10.834s-32.832,11.666-32.832,31
			s15.166,32.334,33,32.334c17.832,0,24.5-12.5,24.5-12.5l-9-11.334c0,0-4.168,8.5-15,8.5c-10.834,0-16.668-9.5-16.668-17
			S1307.832,317,1318,317C1326.5,317,1334.666,324.333,1334.666,324.333z"/>
		<polygon fill="#54B527" points="1372.5,280 1355.5,280 1355.5,364.333 1372.5,364.333 1372.5,346.5 1377.834,340.833 
			1393.334,364.333 1413.666,364.333 1389.666,328.5 1412.834,303.166 1391.334,303.166 1372.834,322.833 		"/>
		<path fill="#54B527" d="M1460.334,320.5l6.5-11c0,0-7.834-7.167-21-7.167c-15.5,0-25,7.333-25,18.167
			c0,20.333,31,18.999,30.834,27.333c-0.096,4.832-10.668,8.167-27.5-3l-7.166,11.666c0,0,11.666,9.168,29,9.168
			c15.832,0,22-10.834,22-21.001c0-18.667-31.5-17.5-31.5-25S1456.334,316.666,1460.334,320.5z"/>
	</g>
</g>
<g id="Layer_2">
	<g>
		<g>
			<path fill-rule="evenodd" clip-rule="evenodd" fill="#000000" d="M1174.208,116.937c0,14.423,0,28.682,0,43.05
				c-5.879,0-11.596,0-17.47,0c0-34.062,0-68.112,0-102.298c5.769,0,11.538,0,17.472,0c0,14.19,0,28.304,0,42.575
				c11.819,0,23.48,0,35.384,0c0-14.165,0-28.333,0-42.604c5.958,0,11.668,0,17.546,0c0,34.06,0,68.109,0,102.298
				c-5.771,0-11.538,0-17.469,0c0-14.339,0-28.598,0-43.021C1197.848,116.937,1186.189,116.937,1174.208,116.937z"/>
			<path fill-rule="evenodd" clip-rule="evenodd" fill="#000000" d="M1377.721,57.661c5.59,0,11.006,0,16.612,0
				c0,19.513,0,38.914,0,59.024c2.05-2.467,3.712-4.403,5.305-6.402c4.328-5.436,8.622-10.893,12.925-16.349
				c1.48-1.871,2.942-3.754,4.401-5.645c1.023-1.331,2.145-2.115,4.035-2.067c5.944,0.158,11.896,0.056,18.543,0.056
				c-8.617,10.069-16.84,19.691-25.111,29.36c9.168,14.708,18.354,29.462,27.709,44.451c-6.942,0-13.489,0.026-20.035-0.043
				c-0.577-0.005-1.382-0.489-1.659-0.986c-3.333-5.914-6.566-11.872-9.843-17.812c-2.364-4.289-4.757-8.566-7.186-12.952
				c-2.953,3.401-5.878,6.727-8.717,10.126c-0.352,0.422-0.321,1.235-0.321,1.869c-0.018,6.478-0.009,12.957-0.009,19.621
				c-5.535,0-11.015,0-16.649,0C1377.721,125.922,1377.721,91.872,1377.721,57.661z"/>
			<path fill-rule="evenodd" clip-rule="evenodd" fill="#000000" d="M1298.899,159.993c-5.746,0-11.172,0-16.707,0
				c-0.062-1.012-0.112-1.933-0.161-2.657c-2.41,0.944-4.695,2.253-7.15,2.731c-10.717,2.091-20.91,1.427-28.918-7.228
				c-4.13-4.458-5.647-9.92-5.453-16.009c0.207-6.248,2.235-11.633,6.785-15.906c3.458-3.255,7.695-5.266,12.446-5.415
				c7.33-0.225,14.67-0.058,22.651-0.058c-0.357-3.463-0.299-6.479-1.102-9.238c-0.416-1.384-2.23-2.855-3.716-3.321
				c-4.768-1.495-9.665-1.654-14.599-0.419c-2.942,0.738-4.671,2.722-6.163,5.567c-4.514-3.486-8.915-6.893-13.486-10.425
				c2.03-3.837,5.214-6.596,8.992-8.595c7.063-3.737,14.625-4.158,22.443-3.267c4.66,0.53,9.06,1.553,13.263,3.639
				c5.721,2.844,8.865,7.593,9.917,13.666c0.655,3.779,0.891,7.672,0.916,11.514c0.102,14.288,0.041,28.574,0.041,42.862
				C1298.899,158.235,1298.899,159.031,1298.899,159.993z M1282.477,130.037c-5.771,0-10.908-0.079-16.047,0.043
				c-1.846,0.043-3.842,0.228-5.492,0.961c-1.53,0.675-3.337,1.914-3.915,3.353c-1.852,4.59,0.125,7.574,4.361,9.175
				c5.524,2.087,11.447,1.658,17.045-0.38c1.147-0.419,2.397-1.923,2.673-3.14C1281.819,136.901,1282.022,133.635,1282.477,130.037z
				"/>
			<path fill-rule="evenodd" clip-rule="evenodd" fill="#000000" d="M1357.428,110.73c-1.996-1.902-3.622-3.801-5.581-5.243
				c-6.401-4.719-17.591-4.029-21.894,4.229c-1.498,2.86-2.379,6.26-2.636,9.484c-0.479,5.864-0.271,11.748,2.438,17.26
				c2.414,4.893,6.519,6.851,11.638,7.272c6.354,0.526,11.312-1.897,14.888-7.182c0.194-0.296,0.514-0.503,0.921-0.883
				c4.162,3.802,8.288,7.58,12.631,11.557c-3.337,3.35-6.385,6.815-10.482,9.211c-5.796,3.393-11.99,4.897-18.689,4.55
				c-6.792-0.35-12.711-2.882-18.028-6.997c-7.999-6.168-10.821-14.754-11.86-24.374c-0.866-8.08-0.256-15.93,2.281-23.629
				c2.364-7.191,7.014-12.486,13.523-16.294c5.684-3.329,11.818-4.699,18.311-4.259c10.377,0.701,18.471,5.617,24.756,14.03
				C1365.552,103.23,1361.524,106.943,1357.428,110.73z"/>
		</g>
		<g>
			<path fill-rule="evenodd" clip-rule="evenodd" fill="#54B527" d="M1174.058,211.42c0,0.772,0,1.547,0,2.318
				c0,20.477-0.032,40.952,0.046,61.432c0.007,2.155-0.632,2.78-2.746,2.7c-4.191-0.152-8.396-0.099-12.593-0.015
				c-1.562,0.031-2.029-0.532-2.026-2.055c0.03-32.705,0.033-65.405,0.003-98.11c0-1.517,0.464-2.081,2.028-2.047
				c4.123,0.085,8.252-0.062,12.371,0.102c0.883,0.031,2.061,0.761,2.546,1.521c7.4,11.728,14.727,23.506,22.04,35.287
				c5.622,9.058,11.205,18.139,16.818,27.2c0.443,0.722,0.995,1.375,1.98,1.982c0.05-0.894,0.132-1.783,0.132-2.68
				c0.006-20.181,0.036-40.36-0.043-60.544c-0.007-2.166,0.443-3.004,2.778-2.896c4.121,0.192,8.251,0.106,12.374,0.027
				c1.569-0.031,2.225,0.372,2.221,2.09c-0.041,32.703-0.032,65.406,0,98.108c0,1.576-0.561,2.038-2.071,2.012
				c-4.051-0.076-8.109,0.072-12.148-0.098c-0.966-0.041-2.255-0.745-2.764-1.546c-5.848-9.259-11.566-18.599-17.327-27.911
				c-6.681-10.805-13.364-21.611-20.056-32.411c-0.953-1.547-1.944-3.07-2.916-4.607
				C1174.489,211.325,1174.275,211.373,1174.058,211.42z"/>
			<path fill-rule="evenodd" clip-rule="evenodd" fill="#54B527" d="M1390.335,264.272c4.053-3.41,8.085-6.813,12.125-10.217
				c-0.218-0.312-0.425-0.619-0.641-0.931c1.516,1.327,2.979,2.718,4.559,3.968c6.754,5.354,14.485,6.537,22.769,5.179
				c3.468-0.571,7.396-4.086,7.033-7.271c-0.388-3.499-1.972-5.112-5.985-5.493c-6.301-0.604-12.693-0.962-18.856-2.296
				c-8.103-1.755-14.638-8.442-15.554-17.432c-0.66-6.525,0.536-12.378,4.571-17.48c2.926-3.719,6.997-6.056,11.521-7.224
				c12.409-3.2,24.187-1.778,34.983,5.542c0.832,0.572,1.679,1.164,2.446,1.835c0.705,0.618,1.319,1.354,2.059,2.13
				c-2.916,3.542-5.891,7.116-8.82,10.732c-0.948,1.176-1.778,1.1-2.942,0.242c-3.973-2.924-8.253-5.393-13.254-5.785
				c-3.16-0.248-6.455-0.14-9.549,0.483c-3.073,0.618-5.231,4.067-4.942,6.672c0.243,2.114,3.143,4.527,6.139,4.837
				c5.156,0.53,10.349,0.706,15.48,1.411c9.765,1.343,16.399,5.486,18.531,16.594c1.23,6.432,0.748,12.667-3.378,18.191
				c-3.837,5.125-9.146,7.859-15.14,9.41c-9.905,2.559-19.574,1.618-28.891-2.51
				C1400.573,273.079,1393.586,268.667,1390.335,264.272z"/>
			<path fill-rule="evenodd" clip-rule="evenodd" fill="#54B527" d="M1306.849,241.157c-0.054,6.918-0.179,13.803-2.825,20.332
				c-2.237,5.525-6.049,9.789-11.023,13.006c-5.503,3.557-11.654,4.691-18.057,4.163c-12.924-1.059-23.312-9.791-25.745-23.081
				c-0.693-3.785-0.657-7.704-0.95-11.562c-0.498-6.581-0.095-13.106,1.334-19.551c2.186-9.938,12.45-19.68,23.34-20.611
				c7.078-0.604,13.82-0.21,19.835,3.696c8.271,5.379,13.056,12.994,13.469,23.077
				C1306.381,234.138,1306.642,237.648,1306.849,241.157z M1290.797,241.363c-0.181-0.028-0.37-0.055-0.561-0.08
				c0-2.574,0.164-5.161-0.025-7.721c-0.407-5.571-2.421-10.159-8.072-12.374c-6.292-2.471-14.814,0.524-16.526,7.752
				c-0.73,3.094-1.177,6.306-1.321,9.486c-0.15,3.272,0.248,6.569,0.373,9.858c0.339,8.589,5.701,14.481,14.64,13.502
				c4.46-0.488,8.263-2.821,9.497-7.308C1289.972,250.244,1290.174,245.743,1290.797,241.363z"/>
			<path fill-rule="evenodd" clip-rule="evenodd" fill="#54B527" d="M1360.514,218.157c-1.86,0-3.477,0.136-5.046-0.074
				c-0.577-0.077-1.489-0.947-1.509-1.489c-0.136-3.525-0.041-7.062-0.082-10.596c-0.017-1.302,0.606-1.651,1.77-1.609
				c1.522,0.051,3.053,0.013,4.867,0.013c0-1.473,0-2.698,0-3.921c0-5.228,0.041-10.452-0.017-15.681
				c-0.028-1.482,0.379-2.122,1.977-2.085c4.116,0.086,8.251,0.093,12.368-0.005c1.688-0.038,2.136,0.601,2.112,2.194
				c-0.071,5.593-0.021,11.188-0.021,16.783c0,0.793,0,1.587,0,2.714c2.821,0,5.448,0.054,8.065-0.025
				c1.455-0.043,2.168,0.312,2.123,1.952c-0.095,3.311-0.082,6.627-0.004,9.936c0.034,1.449-0.494,1.959-1.93,1.916
				c-2.636-0.076-5.272-0.022-8.135-0.022c-0.045,0.967-0.12,1.747-0.12,2.526c0,12.072-0.005,24.144,0,36.214
				c0,4.385,0.582,4.954,4.934,4.96c5.227,0.002,5.227,0.002,5.227,5.188c0,3.018,0.073,6.037-0.066,9.051
				c-0.023,0.594-0.891,1.662-1.336,1.647c-4.303-0.148-8.677-0.07-12.875-0.864c-6.406-1.208-11.633-7.686-11.795-14.418
				c-0.339-13.812-0.354-27.631-0.507-41.446C1360.51,220.153,1360.514,219.291,1360.514,218.157z"/>
			<path fill-rule="evenodd" clip-rule="evenodd" fill="#54B527" d="M1322.062,218.159c-1.891,0-3.498-0.058-5.096,0.017
				c-1.36,0.063-2.037-0.318-1.996-1.84c0.082-3.386,0.067-6.775,0.005-10.159c-0.028-1.352,0.486-1.851,1.818-1.794
				c1.612,0.072,3.228,0.019,5.133,0.019c0.054-0.881,0.136-1.65,0.136-2.422c0.009-5.668,0.062-11.338-0.032-17.006
				c-0.03-1.751,0.511-2.321,2.263-2.27c3.828,0.118,7.661,0.109,11.479,0.004c1.724-0.047,2.334,0.465,2.298,2.251
				c-0.1,5.59-0.035,11.188-0.035,16.783c0,0.788,0,1.578,0,2.659c2.88,0,5.508,0.062,8.124-0.027
				c1.518-0.051,2.112,0.436,2.067,2.011c-0.089,3.236-0.112,6.479,0.011,9.716c0.059,1.727-0.659,2.143-2.23,2.082
				c-2.546-0.095-5.111-0.023-7.972-0.023c0,1.093,0,1.949,0,2.807c0,11.704,0,23.411,0,35.115c0,0.733-0.045,1.484,0.08,2.2
				c0.561,3.197,1.039,3.568,4.343,3.576c5.742,0.011,5.742,0.011,5.742,5.782c0,2.797,0.071,5.598-0.062,8.39
				c-0.027,0.616-0.845,1.723-1.277,1.711c-4.665-0.102-9.349,0.656-13.948-1.057c-6.195-2.312-10.831-8.467-10.84-15.073
				c-0.026-13.473-0.009-26.942-0.009-40.417C1322.062,220.318,1322.062,219.44,1322.062,218.159z"/>
		</g>
		<path fill-rule="evenodd" clip-rule="evenodd" fill="#54B527" d="M1000.138,208.324c3.577,3.142,6.813,5.936,9.994,8.795
			c2.947,2.654,6.062,5.186,8.658,8.157c1.376,1.576,2.183,3.907,2.568,6.02c0.431,2.365,0.396,4.923-0.019,7.298
			c-0.241,1.371-1.372,3.08-2.573,3.648c-1.042,0.497-3.116,0.062-4.094-0.742c-6.6-5.446-13.028-11.1-19.513-16.687
			c-3.24-2.794-6.331-5.792-9.78-8.303c-2.304-1.685-2.8-3.774-3.342-6.308c-1.539-7.206,2.771-10.976,7.703-14.819
			c8.453-6.582,16.707-13.416,24.947-20.266c2.257-1.881,6.212-1.578,6.686,2.784c0.35,3.183,0.704,6.611-0.126,9.602
			c-0.666,2.403-2.852,4.585-4.801,6.396C1011.146,198.832,1005.613,203.514,1000.138,208.324z"/>
		<path fill-rule="evenodd" clip-rule="evenodd" fill="#54B527" d="M1138.534,60.875c-0.002-2.211-1.137-3.209-3.32-3.209
			c-13.111,0.016-26.227-0.063-39.334,0.126c-1.164,0.016-3.054,1.53-3.315,2.647c-0.819,3.511-1.142,7.148-1.438,10.757
			c-0.745,9.121-1.327,18.254-2.11,27.372c-0.072,0.838-1.102,2.264-1.72,2.282c-6.171,0.172-12.347,0.102-18.612,0.102
			c-0.521-7.719-1.076-14.971-1.482-22.234c-0.32-5.739-0.442-11.491-0.697-17.237c-0.104-2.341-1.382-3.766-3.745-3.778
			c-10.223-0.055-20.447-0.082-30.666,0.072c-0.991,0.013-2.499,1.162-2.833,2.112c-0.637,1.828-0.736,3.889-0.817,5.859
			c-0.289,6.857-0.442,13.716-0.711,20.573c-0.156,3.969-0.334,7.943-0.733,11.893c-0.098,0.964-1.079,2.607-1.692,2.623
			c-6.391,0.193-12.792,0.121-19.54,0.121c0-2.884,0.162-5.321-0.027-7.728c-0.801-10.214-1.787-20.411-2.537-30.629
			c-0.291-3.97-0.968-4.918-4.902-4.922c-12.224-0.019-24.446-0.012-36.671,0c-4.266,0.004-5.279,0.994-5.227,5.321
			c0.196,15.748,0.396,31.496,0.672,47.238c0.129,7.307,0.399,14.61,0.671,21.912c0.151,4.081,0.348,8.164,0.697,12.231
			c0.193,2.25,1.15,4.012,3.88,4.085c6.527,0.176,13.05,0.598,19.578,0.626c20.851,0.083,41.703,0.031,63.187,0.031
			c0,2.484,0,3.896,0,5.309c0,40.224-0.002,80.451,0,120.675c0,4.559,0.828,5.388,5.384,5.39c27.445,0.002,54.893,0,82.338-0.002
			c5.385,0,5.729-0.341,5.729-5.601c0-70.561,0-141.121,0-211.684C1138.537,62.433,1138.537,61.654,1138.534,60.875z
			 M1110.197,214.065c-0.193,1.691-2.402,3.348-3.984,4.659c-8.056,6.663-16.151,13.279-24.358,19.75
			c-2.223,1.751-4.073,4.767-7.567,3.826c-1.153-0.31-2.511-1.391-2.955-2.458c-0.652-1.569-0.549-3.447-0.801-5.187
			c-0.736-5.057,1.026-8.943,5.009-12.185c4.446-3.617,8.581-7.618,12.847-11.452c0.969-0.869,1.93-1.74,3.153-2.844
			c-4.959-4.611-9.57-9.598-14.893-13.653c-5.355-4.083-7.364-8.76-5.658-15.186c0.512-1.918-0.447-4.573,2.251-5.379
			c2.875-0.86,4.906,0.812,7.03,2.654c8.236,7.143,16.406,14.392,25.058,21.004C1111.267,202.159,1110.883,208.053,1110.197,214.065
			z"/>
	</g>
</g>
</svg>
