<?xml version="1.0" encoding="utf-8"?>
<!-- Generator: Adobe Illustrator 21.1.0, SVG Export Plug-In . SVG Version: 6.00 Build 0)  -->
<svg version="1.1" id="Layer_1" xmlns="http://www.w3.org/2000/svg" xmlns:xlink="http://www.w3.org/1999/xlink" x="0px" y="0px"
	 viewBox="0 0 600 500" style="enable-background:new 0 0 600 500;" xml:space="preserve">
<style type="text/css">
	.st0{fill:#A4C639;}
</style>
<g>
	<path class="st0" d="M201.8,419c-101,0-175.5-65-175.5-177s74-177.5,175-177.5h127V419H201.8z M259.3,355V128.5h-55.5
		c-58,0-106,36.5-106,113.5s48.5,113,106.5,113H259.3z"/>
</g>
<g>
	<path class="st0" d="M463,64.5c69,0,108,40.5,108,95.5c0,36.5-22,66-51.5,76c34.5,8.5,62.5,40,62.5,84c0,57.5-43,99-109.5,99h-137
		V64.5H463z M452.5,211c31.5,0,50.5-17.5,50.5-44.5s-17.5-44-51-44h-48.5V211H452.5z M459.5,361.5c33.5,0,53.5-17.5,53.5-46
		c0-28-18-47.5-52.5-47.5h-57v93.5H459.5z"/>
</g>
</svg>
