<?xml version="1.0" encoding="UTF-8" standalone="no"?>
<svg
   xmlns:svg="http://www.w3.org/2000/svg"
   xmlns="http://www.w3.org/2000/svg"
   height="354.5"
   width="1081.8"
   xml:space="preserve"
   viewBox="0 0 1081.8 354.5"
   y="0px"
   x="0px"
   id="Layer_1"
   version="1.1"><style
     type="text/css">
	.st0{fill:#FFFFFF;}
</style><g
     transform="translate(182.8,-64.5)"
     id="g104"><path
       style="fill:#ffffff"
       id="path102"
       d="m -7.3,419 c -101,0 -175.5,-65 -175.5,-177 0,-112 74,-177.5 175,-177.5 h 127 V 419 Z M 50.3,355 V 128.5 H -5.3 c -58,0 -106,36.5 -106,113.5 0,77 48.5,113 106.5,113 z"
       class="st0" /></g><g
     transform="translate(182.8,-64.5)"
     id="g108"><path
       style="fill:#ffffff"
       id="path106"
       d="m 254,64.5 c 69,0 108,40.5 108,95.5 0,36.5 -22,66 -51.5,76 34.5,8.5 62.5,40 62.5,84 0,57.5 -43,99 -109.5,99 h -137 V 64.5 Z M 243.5,211 c 31.5,0 50.5,-17.5 50.5,-44.5 0,-27 -17.5,-44 -51,-44 H 194.5 V 211 Z m 7,150.5 c 33.5,0 53.5,-17.5 53.5,-46 0,-28 -18,-47.5 -52.5,-47.5 h -57 v 93.5 z"
       class="st0" /></g><g
     transform="translate(182.8,-64.5)"
     id="g122"><path
       style="fill:#ffffff"
       id="path110"
       d="M 402.2,258.3 V 130.7 h 44.6 c 32.4,0 60.7,22.1 60.7,64.1 0,41.8 -28.6,63.5 -61,63.5 z m 43.7,-15.6 c 23.6,0 43.4,-15.8 43.4,-47.9 0,-32.2 -19.4,-48.4 -43,-48.4 h -26.5 v 96.3 z"
       class="st0" /><path
       style="fill:#ffffff"
       id="path112"
       d="m 550.9,208.8 23.4,-3.4 c 5.2,-0.7 6.7,-3.4 6.7,-6.5 0,-8.5 -5.6,-15.5 -18.7,-15.5 -11.9,0 -18.5,7.4 -19.6,17.5 l -16.2,-3.8 c 1.8,-16.6 16.7,-28.1 35.5,-28.1 25.9,0 36,14.8 36,31.7 v 43.4 c 0,7.6 0.7,12.1 1.1,14.2 h -16.6 c -0.4,-2.2 -0.9,-5.4 -0.9,-11.7 -3.8,6.1 -12.4,14.4 -27.9,14.4 -17.6,0 -29,-12.2 -29,-25.9 -0.1,-15.5 11.2,-24.1 26.2,-26.3 z m 30,12.4 v -4 l -26.5,4 c -7.2,1.1 -12.6,5.2 -12.6,13 0,6.5 5.4,12.6 14,12.6 14,0 25.1,-6.7 25.1,-25.6 z"
       class="st0" /><path
       style="fill:#ffffff"
       id="path114"
       d="m 641.1,258.3 h -16.9 v -86.6 h 16.6 v 12.4 c 6.3,-10.8 16.6,-14.9 26.6,-14.9 20.7,0 31,14.9 31,34.2 v 54.9 h -16.9 v -52 c 0,-12.1 -5,-21.8 -20.2,-21.8 -13.3,0 -20.2,10.6 -20.2,23.8 z"
       class="st0" /><path
       style="fill:#ffffff"
       id="path116"
       d="m 733.6,126.7 c 6.8,0 12.2,5.4 12.2,12.2 0,6.7 -5.4,12.1 -12.2,12.1 -6.7,0 -12.1,-5.4 -12.1,-12.1 0,-6.8 5.4,-12.2 12.1,-12.2 z m -8.3,131.6 V 171.7 H 742 v 86.6 z"
       class="st0" /><path
       style="fill:#ffffff"
       id="path118"
       d="m 846.3,233.7 c -4.9,15.3 -18.7,27.4 -38.9,27.4 -23.2,0 -43.6,-16.9 -43.6,-46.3 0,-27.2 19.6,-45.7 41.4,-45.7 26.6,0 41.6,18.4 41.6,45.4 0,2.2 -0.2,4.3 -0.4,5.4 h -65.2 c 0.4,15.5 11.5,26.3 26.1,26.3 14,0 21.1,-7.7 24.3,-17.5 z m -17.1,-27.6 c -0.4,-12.4 -8.5,-22.1 -23.8,-22.1 -14.2,0 -22.9,11 -23.6,22.1 z"
       class="st0" /><path
       style="fill:#ffffff"
       id="path120"
       d="M 868.4,258.3 V 128 h 16.9 v 130.3 z"
       class="st0" /></g><g
     transform="translate(182.8,-64.5)"
     id="g136"><path
       style="fill:#ffffff"
       id="path124"
       d="m 443.8,287.7 c 24.3,0 38.5,14.4 38.5,34.6 0,13.7 -7.9,23.4 -19.1,27.5 14.6,3.6 23,16.6 23,30.8 0,20.2 -16,34.7 -39.4,34.7 H 402.2 V 287.7 Z m -2,55.8 c 14.2,0 22.7,-8.5 22.7,-20.3 0,-12.1 -8.8,-20 -23.4,-20 h -21.2 v 40.3 z m 2.5,56.3 c 14.2,0 23.9,-7.9 23.9,-20.3 0,-12.2 -7.7,-20.9 -23.2,-20.9 h -25.2 v 41.2 z"
       class="st0" /><path
       style="fill:#ffffff"
       id="path126"
       d="m 527.8,365.8 23.4,-3.4 c 5.2,-0.7 6.7,-3.4 6.7,-6.5 0,-8.5 -5.6,-15.5 -18.7,-15.5 -11.9,0 -18.5,7.4 -19.6,17.5 l -16.2,-3.8 c 1.8,-16.6 16.7,-28.1 35.5,-28.1 25.9,0 36,14.8 36,31.7 v 43.4 c 0,7.6 0.7,12.1 1.1,14.2 h -16.6 c -0.4,-2.2 -0.9,-5.4 -0.9,-11.7 -3.8,6.1 -12.4,14.4 -27.9,14.4 -17.6,0 -29,-12.2 -29,-25.9 0,-15.5 11.3,-24.1 26.2,-26.3 z m 30.1,12.4 v -4 l -26.5,4 c -7.2,1.1 -12.6,5.2 -12.6,13 0,6.5 5.4,12.6 14,12.6 13.9,0 25.1,-6.7 25.1,-25.6 z"
       class="st0" /><path
       style="fill:#ffffff"
       id="path128"
       d="m 620.7,371.2 -31.1,-42.5 h 20.5 l 21.2,30.4 20.9,-30.4 h 20 l -30.8,42.5 c 5.2,7 26.6,37.1 31.9,44.1 H 653 l -22.3,-31.9 -22,31.9 h -20.2 z"
       class="st0" /><path
       style="fill:#ffffff"
       id="path130"
       d="m 713.1,328.7 h 18.7 V 344 h -18.7 v 45 c 0,7.9 3.2,11.9 12.1,11.9 2.2,0 5.2,-0.4 6.7,-0.7 v 14.4 c -1.4,0.5 -5.8,1.6 -11.5,1.6 -14.8,0 -24.1,-9 -24.1,-24.7 V 344 h -16.6 v -15.3 h 4.7 c 9.4,0 13.3,-5.8 13.3,-13.3 v -14 h 15.5 v 27.3 z"
       class="st0" /><path
       style="fill:#ffffff"
       id="path132"
       d="m 828.8,390.7 c -4.9,15.3 -18.7,27.4 -38.9,27.4 -23.2,0 -43.6,-16.9 -43.6,-46.3 0,-27.2 19.6,-45.7 41.4,-45.7 26.6,0 41.6,18.4 41.6,45.4 0,2.2 -0.2,4.3 -0.4,5.4 h -65.2 c 0.4,15.5 11.5,26.3 26.1,26.3 14,0 21.1,-7.7 24.3,-17.5 z m -17.1,-27.6 c -0.4,-12.4 -8.5,-22.1 -23.8,-22.1 -14.2,0 -22.9,11 -23.6,22.1 z"
       class="st0" /><path
       style="fill:#ffffff"
       id="path134"
       d="m 899,345.8 c -2.5,-0.4 -5,-0.5 -7.4,-0.5 -14.2,0 -23.8,7.6 -23.8,26.6 v 43.4 h -16.9 v -86.6 h 16.6 v 15.1 c 6.3,-13.3 17.1,-16.6 25.9,-16.6 2.3,0 4.7,0.4 5.6,0.5 z"
       class="st0" /></g></svg>