<?xml version="1.0" encoding="UTF-8" standalone="no"?>
<svg
   xmlns:svg="http://www.w3.org/2000/svg"
   xmlns="http://www.w3.org/2000/svg"
   height="354.5"
   width="555.70001"
   xml:space="preserve"
   viewBox="0 0 555.70001 354.5"
   y="0px"
   x="0px"
   id="Layer_1"
   version="1.1"><style
     type="text/css">
	.st0{fill:#FFFFFF;}
</style><g
     transform="translate(-26.3,-64.5)"
     id="g31"><path
       style="fill:#ffffff"
       id="path29"
       d="m 201.8,419 c -101,0 -175.5,-65 -175.5,-177 0,-112 74,-177.5 175,-177.5 h 127 V 419 Z m 57.5,-64 V 128.5 h -55.5 c -58,0 -106,36.5 -106,113.5 0,77 48.5,113 106.5,113 z"
       class="st0" /></g><g
     transform="translate(-26.3,-64.5)"
     id="g35"><path
       style="fill:#ffffff"
       id="path33"
       d="m 463,64.5 c 69,0 108,40.5 108,95.5 0,36.5 -22,66 -51.5,76 34.5,8.5 62.5,40 62.5,84 0,57.5 -43,99 -109.5,99 h -137 V 64.5 Z M 452.5,211 c 31.5,0 50.5,-17.5 50.5,-44.5 0,-27 -17.5,-44 -51,-44 H 403.5 V 211 Z m 7,150.5 c 33.5,0 53.5,-17.5 53.5,-46 0,-28 -18,-47.5 -52.5,-47.5 h -57 v 93.5 z"
       class="st0" /></g></svg>