<?xml version="1.0" encoding="utf-8"?>
<!-- Generator: Adobe Illustrator 21.1.0, SVG Export Plug-In . SVG Version: 6.00 Build 0)  -->
<svg version="1.1" id="Layer_1" xmlns="http://www.w3.org/2000/svg" xmlns:xlink="http://www.w3.org/1999/xlink" x="0px" y="0px"
	 viewBox="0 0 60 50" style="enable-background:new 0 0 60 50;" xml:space="preserve">
<style type="text/css">
	.st0{fill:#FFFFFF;}
</style>
<g>
	<path class="st0" d="M-7.3,419c-101,0-175.5-65-175.5-177s74-177.5,175-177.5h127V419H-7.3z M50.3,355V128.5H-5.3
		c-58,0-106,36.5-106,113.5S-62.8,355-4.8,355H50.3z"/>
</g>
<g>
	<path class="st0" d="M254,64.5c69,0,108,40.5,108,95.5c0,36.5-22,66-51.5,76c34.5,8.5,62.5,40,62.5,84c0,57.5-43,99-109.5,99h-137
		V64.5H254z M243.5,211c31.5,0,50.5-17.5,50.5-44.5s-17.5-44-51-44h-48.5V211H243.5z M250.5,361.5c33.5,0,53.5-17.5,53.5-46
		c0-28-18-47.5-52.5-47.5h-57v93.5H250.5z"/>
</g>
<g>
	<path class="st0" d="M402.2,264.3V136.7h44.6c32.4,0,60.7,22.1,60.7,64.1c0,41.8-28.6,63.5-61,63.5H402.2z M445.9,248.7
		c23.6,0,43.4-15.8,43.4-47.9c0-32.2-19.4-48.4-43-48.4h-26.5v96.3H445.9z"/>
	<path class="st0" d="M601.8,228.7h-56.5l-13.5,35.6h-18.9l50.8-127.6H584l50.8,127.6h-19.1L601.8,228.7z M551.6,212.3h43.9
		l-22.1-57.2L551.6,212.3z"/>
	<path class="st0" d="M739.3,264.3l-68.9-104v104h-17.6V136.7h23.6l63.7,97.9v-97.9h17.6v127.6H739.3z"/>
	<path class="st0" d="M790.1,264.3V136.7h18v127.6H790.1z"/>
	<path class="st0" d="M840.5,264.3V136.7h77.6v16.4h-59.9v39.2h54.4v16.6h-54.4v39.1h59.9v16.4H840.5z"/>
	<path class="st0" d="M945.1,264.3V136.7h17.6v111.1h60.3v16.6H945.1z"/>
</g>
<g>
	<path class="st0" d="M443.8,293.7c24.3,0,38.5,14.4,38.5,34.6c0,13.7-7.9,23.4-19.1,27.5c14.6,3.6,23,16.6,23,30.8
		c0,20.2-16,34.7-39.4,34.7h-44.6V293.7H443.8z M441.8,349.5c14.2,0,22.7-8.5,22.7-20.3c0-12.1-8.8-20-23.4-20h-21.2v40.3H441.8z
		 M444.3,405.8c14.2,0,23.9-7.9,23.9-20.3c0-12.2-7.7-20.9-23.2-20.9h-25.2v41.2H444.3z"/>
	<path class="st0" d="M581.5,385.7H525l-13.5,35.6h-18.9l50.8-127.6h20.3l50.8,127.6h-19.1L581.5,385.7z M531.3,369.3h43.9
		L553,312.1L531.3,369.3z"/>
	<path class="st0" d="M682.1,357.4l42.8,63.9h-21.1l-32.2-49.9l-32.9,49.9H618l43.6-63.9l-43.2-63.7h21.2l32.2,50l32.8-50h20.9
		L682.1,357.4z"/>
	<path class="st0" d="M792.1,310.1v111.2h-17.6V310.1h-42.7v-16.4h103v16.4H792.1z"/>
	<path class="st0" d="M852.7,421.3V293.7h77.6v16.4h-59.9v39.2h54.4v16.6h-54.4v39.1h59.9v16.4H852.7z"/>
	<path class="st0" d="M994.2,369.1h-19.1v52.2h-17.8V293.7h48.1c24.1,0,39.1,16.9,39.1,38c0,18.4-11.7,32.6-31,36.2l30.4,53.5h-20.5
		L994.2,369.1z M1002.1,353.3c14.4,0,24.1-8.5,24.1-21.6c0-13.5-9.7-22.1-24.1-22.1h-27v43.7H1002.1z"/>
</g>
</svg>
