<?xml version="1.0" encoding="utf-8"?>
<!-- Generator: Adobe Illustrator 21.1.0, SVG Export Plug-In . SVG Version: 6.00 Build 0)  -->
<svg version="1.1" id="Layer_1" xmlns="http://www.w3.org/2000/svg" xmlns:xlink="http://www.w3.org/1999/xlink" x="0px" y="0px"
	 viewBox="0 0 600 500" style="enable-background:new 0 0 600 500;" xml:space="preserve">
<g>
	<path d="M201.8,419c-101,0-175.5-65-175.5-177s74-177.5,175-177.5h127V419H201.8z M259.3,355V128.5h-55.5c-58,0-106,36.5-106,113.5
		s48.5,113,106.5,113H259.3z"/>
</g>
<g>
	<path d="M463,64.5c69,0,108,40.5,108,95.5c0,36.5-22,66-51.5,76c34.5,8.5,62.5,40,62.5,84c0,57.5-43,99-109.5,99h-137V64.5H463z
		 M452.5,211c31.5,0,50.5-17.5,50.5-44.5s-17.5-44-51-44h-48.5V211H452.5z M459.5,361.5c33.5,0,53.5-17.5,53.5-46
		c0-28-18-47.5-52.5-47.5h-57v93.5H459.5z"/>
</g>
<g>
	<path d="M615.1,238.6V132.3h38.1c30.3,0,52.5,19.6,52.5,53.2s-22.3,53.1-52.6,53.1H615.1z M652.3,219.4c17.4,0,31.9-10.8,31.9-33.9
		c0-23.1-14.4-34-31.8-34h-16.6v67.9H652.3z"/>
	<path d="M741,197.4l19.5-2.8c4.3-0.6,5.5-2.9,5.5-5.4c0-7-4.7-12.9-15.6-12.9c-9.9,0-15.4,6.1-16.3,14.5l-13.5-3.1
		c1.5-13.8,13.9-23.4,29.5-23.4c21.6,0,30,12.3,30,26.4v36.1c0,6.3,0.6,10,0.9,11.8h-13.8c-0.3-1.8-0.8-4.5-0.8-9.7
		c-3.1,5.1-10.3,12-23.2,12c-14.7,0-24.1-10.2-24.1-21.6C719.1,206.4,728.5,199.2,741,197.4z M766,207.7v-3.3l-22,3.3
		c-6,0.9-10.5,4.4-10.5,10.8c0,5.4,4.5,10.5,11.7,10.5C756.7,229,766,223.5,766,207.7z"/>
	<path d="M816.1,238.6H802v-72.1h13.8v10.3c5.3-9,13.8-12.4,22.2-12.4c17.2,0,25.8,12.4,25.8,28.5v45.7h-14.1v-43.3
		c0-10-4.2-18.1-16.8-18.1c-11.1,0-16.8,8.8-16.8,19.8V238.6z"/>
	<path d="M893.2,129c5.7,0,10.2,4.5,10.2,10.2c0,5.5-4.5,10-10.2,10c-5.5,0-10-4.5-10-10C883.2,133.5,887.7,129,893.2,129z
		 M886.3,238.6v-72.1h14v72.1H886.3z"/>
	<path d="M987.1,218.1c-4,12.7-15.6,22.8-32.4,22.8c-19.3,0-36.3-14.1-36.3-38.5c0-22.6,16.3-38.1,34.5-38.1
		c22.2,0,34.6,15.3,34.6,37.8c0,1.8-0.2,3.6-0.3,4.5H933c0.3,12.9,9.6,21.9,21.7,21.9c11.7,0,17.5-6.4,20.2-14.5L987.1,218.1z
		 M972.9,195.1c-0.3-10.3-7-18.4-19.8-18.4c-11.8,0-19,9.1-19.6,18.4H972.9z"/>
	<path d="M1005.6,238.6V130h14.1v108.6H1005.6z"/>
	<path d="M653.4,312.3c20.7,0,32.4,12.1,32.4,28.6c0,11-6.6,19.8-15.4,22.8c10.3,2.5,18.7,12,18.7,25.2c0,17.3-12.9,29.7-32.8,29.7
		h-41.1V312.3H653.4z M650.2,356.2c9.4,0,15.1-5.3,15.1-13.3s-5.3-13.2-15.3-13.2h-14.5v26.5H650.2z M652.3,401.4
		c10,0,16-5.3,16-13.8c0-8.4-5.4-14.2-15.7-14.2h-17.1v28H652.3z"/>
	<path d="M723.9,377.4l19.5-2.9c4.3-0.6,5.5-2.8,5.5-5.4c0-7-4.7-12.9-15.6-12.9c-9.9,0-15.4,6.1-16.3,14.5l-13.5-3.2
		c1.5-13.8,13.9-23.4,29.5-23.4c21.6,0,30,12.3,30,26.4v36.1c0,6.3,0.6,10,0.9,11.8h-13.8c-0.3-1.8-0.8-4.5-0.8-9.8
		c-3.1,5.1-10.3,12-23.2,12c-14.7,0-24.1-10.2-24.1-21.6C702,386.4,711.4,379.2,723.9,377.4z M748.9,387.7v-3.3l-22,3.3
		c-6,0.9-10.5,4.3-10.5,10.8c0,5.4,4.5,10.5,11.7,10.5C739.6,409,748.9,403.5,748.9,387.7z"/>
	<path d="M801.3,381.9l-25.9-35.4h17.1l17.7,25.3l17.4-25.3h16.6l-25.6,35.4c4.4,5.8,22.2,30.9,26.5,36.7h-17l-18.6-26.5l-18.3,26.5
		h-16.8L801.3,381.9z"/>
	<path d="M878.2,346.5h15.6v12.8h-15.6v37.5c0,6.6,2.7,9.9,10,9.9c1.8,0,4.3-0.3,5.5-0.6v12c-1.2,0.4-4.8,1.3-9.6,1.3
		c-12.3,0-20.1-7.5-20.1-20.5v-39.6h-13.8v-12.8h3.9c7.8,0,11.1-4.8,11.1-11.1v-11.7h12.9V346.5z"/>
	<path d="M974.7,398.1c-4,12.7-15.6,22.8-32.4,22.8c-19.3,0-36.3-14.1-36.3-38.5c0-22.6,16.3-38.1,34.5-38.1
		c22.2,0,34.6,15.3,34.6,37.8c0,1.8-0.2,3.6-0.3,4.5h-54.3c0.3,12.9,9.6,21.9,21.7,21.9c11.7,0,17.5-6.5,20.2-14.5L974.7,398.1z
		 M960.4,375.1c-0.3-10.3-7-18.4-19.8-18.4c-11.8,0-19,9.1-19.6,18.4H960.4z"/>
	<path d="M1033.2,360.7c-2.1-0.3-4.2-0.5-6.1-0.5c-11.8,0-19.8,6.3-19.8,22.2v36.1h-14.1v-72.1h13.8v12.6
		c5.3-11.1,14.3-13.8,21.6-13.8c1.9,0,3.9,0.3,4.6,0.4V360.7z"/>
</g>
</svg>
