<?xml version="1.0" encoding="utf-8"?>
<!-- Generator: Adobe Illustrator 21.1.0, SVG Export Plug-In . SVG Version: 6.00 Build 0)  -->
<svg version="1.1" id="Layer_1" xmlns="http://www.w3.org/2000/svg" xmlns:xlink="http://www.w3.org/1999/xlink" x="0px" y="0px"
	 viewBox="0 0 600 500" style="enable-background:new 0 0 600 500;" xml:space="preserve">
<style type="text/css">
	.st0{fill:#FFFFFF;}
</style>
<g>
	<path class="st0" d="M-7.3,419c-101,0-175.5-65-175.5-177s74-177.5,175-177.5h127V419H-7.3z M50.3,355V128.5H-5.3
		c-58,0-106,36.5-106,113.5S-62.8,355-4.8,355H50.3z"/>
</g>
<g>
	<path class="st0" d="M254,64.5c69,0,108,40.5,108,95.5c0,36.5-22,66-51.5,76c34.5,8.5,62.5,40,62.5,84c0,57.5-43,99-109.5,99h-137
		V64.5H254z M243.5,211c31.5,0,50.5-17.5,50.5-44.5s-17.5-44-51-44h-48.5V211H243.5z M250.5,361.5c33.5,0,53.5-17.5,53.5-46
		c0-28-18-47.5-52.5-47.5h-57v93.5H250.5z"/>
</g>
<g>
	<path class="st0" d="M402.2,258.3V130.7h44.6c32.4,0,60.7,22.1,60.7,64.1c0,41.8-28.6,63.5-61,63.5H402.2z M445.9,242.7
		c23.6,0,43.4-15.8,43.4-47.9c0-32.2-19.4-48.4-43-48.4h-26.5v96.3H445.9z"/>
	<path class="st0" d="M550.9,208.8l23.4-3.4c5.2-0.7,6.7-3.4,6.7-6.5c0-8.5-5.6-15.5-18.7-15.5c-11.9,0-18.5,7.4-19.6,17.5
		l-16.2-3.8c1.8-16.6,16.7-28.1,35.5-28.1c25.9,0,36,14.8,36,31.7v43.4c0,7.6,0.7,12.1,1.1,14.2h-16.6c-0.4-2.2-0.9-5.4-0.9-11.7
		c-3.8,6.1-12.4,14.4-27.9,14.4c-17.6,0-29-12.2-29-25.9C524.6,219.6,535.9,211,550.9,208.8z M580.9,221.2v-4l-26.5,4
		c-7.2,1.1-12.6,5.2-12.6,13c0,6.5,5.4,12.6,14,12.6C569.8,246.8,580.9,240.1,580.9,221.2z"/>
	<path class="st0" d="M641.1,258.3h-16.9v-86.6h16.6v12.4c6.3-10.8,16.6-14.9,26.6-14.9c20.7,0,31,14.9,31,34.2v54.9h-16.9v-52
		c0-12.1-5-21.8-20.2-21.8c-13.3,0-20.2,10.6-20.2,23.8V258.3z"/>
	<path class="st0" d="M733.6,126.7c6.8,0,12.2,5.4,12.2,12.2c0,6.7-5.4,12.1-12.2,12.1c-6.7,0-12.1-5.4-12.1-12.1
		C721.5,132.1,726.9,126.7,733.6,126.7z M725.3,258.3v-86.6H742v86.6H725.3z"/>
	<path class="st0" d="M846.3,233.7c-4.9,15.3-18.7,27.4-38.9,27.4c-23.2,0-43.6-16.9-43.6-46.3c0-27.2,19.6-45.7,41.4-45.7
		c26.6,0,41.6,18.4,41.6,45.4c0,2.2-0.2,4.3-0.4,5.4h-65.2c0.4,15.5,11.5,26.3,26.1,26.3c14,0,21.1-7.7,24.3-17.5L846.3,233.7z
		 M829.2,206.1c-0.4-12.4-8.5-22.1-23.8-22.1c-14.2,0-22.9,11-23.6,22.1H829.2z"/>
	<path class="st0" d="M868.4,258.3V128h16.9v130.3H868.4z"/>
</g>
<g>
	<path class="st0" d="M443.8,287.7c24.3,0,38.5,14.4,38.5,34.6c0,13.7-7.9,23.4-19.1,27.5c14.6,3.6,23,16.6,23,30.8
		c0,20.2-16,34.7-39.4,34.7h-44.6V287.7H443.8z M441.8,343.5c14.2,0,22.7-8.5,22.7-20.3c0-12.1-8.8-20-23.4-20h-21.2v40.3H441.8z
		 M444.3,399.8c14.2,0,23.9-7.9,23.9-20.3c0-12.2-7.7-20.9-23.2-20.9h-25.2v41.2H444.3z"/>
	<path class="st0" d="M527.8,365.8l23.4-3.4c5.2-0.7,6.7-3.4,6.7-6.5c0-8.5-5.6-15.5-18.7-15.5c-11.9,0-18.5,7.4-19.6,17.5
		l-16.2-3.8c1.8-16.6,16.7-28.1,35.5-28.1c25.9,0,36,14.8,36,31.7v43.4c0,7.6,0.7,12.1,1.1,14.2h-16.6c-0.4-2.2-0.9-5.4-0.9-11.7
		c-3.8,6.1-12.4,14.4-27.9,14.4c-17.6,0-29-12.2-29-25.9C501.6,376.6,512.9,368,527.8,365.8z M557.9,378.2v-4l-26.5,4
		c-7.2,1.1-12.6,5.2-12.6,13c0,6.5,5.4,12.6,14,12.6C546.7,403.8,557.9,397.1,557.9,378.2z"/>
	<path class="st0" d="M620.7,371.2l-31.1-42.5h20.5l21.2,30.4l20.9-30.4h20l-30.8,42.5c5.2,7,26.6,37.1,31.9,44.1h-20.3l-22.3-31.9
		l-22,31.9h-20.2L620.7,371.2z"/>
	<path class="st0" d="M713.1,328.7h18.7V344h-18.7v45c0,7.9,3.2,11.9,12.1,11.9c2.2,0,5.2-0.4,6.7-0.7v14.4
		c-1.4,0.5-5.8,1.6-11.5,1.6c-14.8,0-24.1-9-24.1-24.7V344h-16.6v-15.3h4.7c9.4,0,13.3-5.8,13.3-13.3v-14h15.5V328.7z"/>
	<path class="st0" d="M828.8,390.7c-4.9,15.3-18.7,27.4-38.9,27.4c-23.2,0-43.6-16.9-43.6-46.3c0-27.2,19.6-45.7,41.4-45.7
		c26.6,0,41.6,18.4,41.6,45.4c0,2.2-0.2,4.3-0.4,5.4h-65.2c0.4,15.5,11.5,26.3,26.1,26.3c14,0,21.1-7.7,24.3-17.5L828.8,390.7z
		 M811.7,363.1c-0.4-12.4-8.5-22.1-23.8-22.1c-14.2,0-22.9,11-23.6,22.1H811.7z"/>
	<path class="st0" d="M899,345.8c-2.5-0.4-5-0.5-7.4-0.5c-14.2,0-23.8,7.6-23.8,26.6v43.4h-16.9v-86.6h16.6v15.1
		c6.3-13.3,17.1-16.6,25.9-16.6c2.3,0,4.7,0.4,5.6,0.5V345.8z"/>
</g>
</svg>
