<?xml version="1.0" standalone="no"?>
<!DOCTYPE svg PUBLIC "-//W3C//DTD SVG 20010904//EN"
 "http://www.w3.org/TR/2001/REC-SVG-20010904/DTD/svg10.dtd">
<svg version="1.0" xmlns="http://www.w3.org/2000/svg"
 width="600.000000pt" height="600.000000pt" viewBox="0 0 600.000000 600.000000"
 preserveAspectRatio="xMidYMid meet">
<metadata>
Created by potrace 1.11, written by Peter Selinger 2001-2013
</metadata>
<g transform="translate(0.000000,600.000000) scale(0.100000,-0.100000)"
fill="#000000" stroke="none">
<path d="M1927 4854 c-1 -1 -42 -4 -92 -7 -323 -21 -657 -138 -910 -319 -36
-26 -175 -148 -204 -181 -20 -22 -53 -58 -73 -81 -21 -22 -38 -44 -38 -48 0
-4 -6 -13 -13 -20 -39 -41 -192 -313 -201 -361 -2 -7 -9 -25 -15 -42 -7 -16
-15 -41 -17 -54 -3 -13 -9 -31 -13 -40 -10 -18 -57 -224 -65 -286 -29 -212
-25 -553 8 -715 1 -8 6 -33 11 -55 11 -60 44 -182 67 -250 91 -275 287 -552
508 -720 36 -28 67 -53 70 -56 10 -12 177 -106 240 -136 61 -29 226 -91 260
-98 8 -2 35 -8 60 -15 25 -7 56 -14 70 -16 23 -4 82 -15 175 -30 58 -10 1525
-17 1526 -7 1 4 2 799 2 1766 1 1163 -1 1761 -8 1765 -8 5 -1342 11 -1348 6z
m664 -664 c0 -14 1 -522 1 -1130 l1 -1105 -359 1 c-197 1 -372 4 -389 8 -16 3
-52 11 -80 17 -123 27 -267 89 -362 156 -76 54 -175 151 -211 207 -15 22 -30
43 -33 46 -9 7 -70 125 -91 175 -20 49 -55 168 -62 215 -3 19 -8 48 -11 64
-23 117 -18 415 9 526 3 14 8 36 10 50 2 14 14 57 26 95 12 39 22 71 21 72 -2
5 95 189 107 204 6 8 33 41 60 74 115 141 295 258 462 300 3 1 12 4 20 7 31
12 131 29 197 35 37 3 69 6 70 7 1 0 139 1 307 1 l306 0 1 -25z"/>
<path d="M3359 4855 c-1 0 -2 -798 -3 -1773 l-1 -1773 780 4 c429 2 794 7 810
11 17 4 66 15 111 26 197 46 359 134 492 268 136 136 212 283 258 497 10 48
13 292 3 333 -4 20 -11 52 -14 71 -9 50 -64 189 -98 246 -99 165 -253 291
-427 350 -59 20 -84 35 -59 35 15 0 139 58 149 69 3 4 21 18 40 32 46 34 105
93 139 139 14 19 28 37 31 40 7 7 31 50 53 95 36 72 66 176 78 261 10 78 7
238 -7 294 -3 14 -7 32 -8 40 -16 101 -75 238 -145 335 -44 63 -144 163 -203
203 -105 72 -285 147 -400 166 -18 3 -44 8 -58 11 -63 14 -190 17 -832 19
-379 1 -689 1 -689 1z m1286 -589 c60 -9 147 -37 177 -58 14 -10 30 -18 35
-18 18 0 103 -97 126 -145 49 -100 60 -272 22 -361 -8 -19 -13 -36 -12 -38 1
-2 -12 -25 -30 -52 -32 -50 -95 -114 -112 -114 -5 0 -11 -4 -13 -8 -4 -12
-126 -60 -174 -69 -22 -5 -172 -8 -334 -8 l-295 0 -1 430 c0 237 1 435 3 440
4 11 535 12 608 1z m105 -1459 c14 -3 36 -8 49 -11 58 -13 154 -68 201 -116
50 -49 102 -141 116 -205 3 -16 8 -69 10 -117 7 -181 -72 -326 -219 -403 -29
-15 -68 -32 -87 -37 -19 -5 -44 -11 -55 -14 -50 -14 -171 -19 -440 -19 l-290
0 0 468 0 468 345 -4 c190 -2 356 -7 370 -10z"/>
</g>
</svg>
